<?xml version="1.0" standalone="no"?>
<!DOCTYPE svg PUBLIC "-//W3C//DTD SVG 1.1//EN" "http://www.w3.org/Graphics/SVG/1.1/DTD/svg11.dtd" >
<svg>
<metadata>
Created by FontForge 20090622 at Thu Jul 14 19:50:45 2016
 By deploy user
Created by Adam Bradley with FontForge 2.0 (http://fontforge.sf.net)
</metadata>
<defs>
<font id="Ionicons" horiz-adv-x="448" >
  <font-face 
    font-family="Ionicons"
    font-weight="500"
    font-stretch="normal"
    units-per-em="512"
    panose-1="2 0 6 3 0 0 0 0 0 0"
    ascent="448"
    descent="-64"
    bbox="-1.16667 -64 512.8 448"
    underline-thickness="25"
    underline-position="-52"
    unicode-range="U+F100-U+F4F7"
  />
<missing-glyph horiz-adv-x="187" 
d="M17 0v341h136v-341h-136zM34 17h102v307h-102v-307z" />
    <glyph glyph-name=".notdef" horiz-adv-x="187" 
d="M17 0v341h136v-341h-136zM34 17h102v307h-102v-307z" />
    <glyph glyph-name=".null" horiz-adv-x="0" 
 />
    <glyph glyph-name="nonmarkingreturn" horiz-adv-x="170" 
 />
    <glyph glyph-name="uniF100" unicode="&#xf100;" 
d="M445 26q6 -11 2 -18q-5 -8 -14 -8h-418q-9 0 -14 8q-4 7 2 18l207 349q5 9 14 9t14 -9zM256 48v48h-64v-48h64zM256 128v144h-64v-144h64z" />
    <glyph glyph-name="uniF101" unicode="&#xf101;" horiz-adv-x="128" 
d="M128 -32h-128v96h128v-96zM112 128h-96l-16 288h128z" />
    <glyph glyph-name="uniF102" unicode="&#xf102;" 
d="M224 140l-128 116h80v96h96v-96h80zM433 151q18 -10 15 -32l-9 -67q-3 -20 -28 -20h-374q-25 0 -28 20l-9 67q-3 22 14 32l72 55h42l-62 -62h50q4 0 6 -3l18 -45h168l18 45q2 3 5 3h51l-62 62h42z" />
    <glyph glyph-name="uniF103" unicode="&#xf103;" horiz-adv-x="384" 
d="M192 0l-192 192h112v192h160v-192h112z" />
    <glyph glyph-name="uniF104" unicode="&#xf104;" horiz-adv-x="320" 
d="M3 263q-3 3 -3 9q0 7 5 11.5t12 4.5h286q7 0 12 -4.5t5 -11.5q0 -5 -3 -8l-2 -3l-136 -156q-9 -9 -19 -9t-19 9l-136 156z" />
    <glyph glyph-name="uniF105" unicode="&#xf105;" horiz-adv-x="274" 
d="M265 125l-105 -100q-9 -9 -23 -9q-13 0 -22 9l-106 100q-9 9 -9 21.5t9 21.5t23 9t23 -9l50 -48v217q0 13 9.5 22t22.5 9t22.5 -9t9.5 -22v-217l50 48q9 9 23 9t23 -9t9 -21.5t-9 -21.5z" />
    <glyph glyph-name="uniF106" unicode="&#xf106;" horiz-adv-x="384" 
d="M0 192l192 192v-112h192v-160h-192v-112z" />
    <glyph glyph-name="uniF107" unicode="&#xf107;" horiz-adv-x="192" 
d="M167 349q3 3 9 3q7 0 11.5 -5t4.5 -12v-286q0 -7 -4.5 -12t-11.5 -5q-6 0 -9 3l-2 2l-156 136q-9 9 -9 19t9 19l156 136z" />
    <glyph glyph-name="uniF108" unicode="&#xf108;" horiz-adv-x="352" 
d="M109 320q9 9 22 9t22 -9t9 -23t-9 -23l-49 -50h217q13 0 22 -9.5t9 -22.5t-9 -22.5t-22 -9.5h-217l48 -50q9 -9 9 -23t-9 -23t-21.5 -9t-21.5 9l-100 106q-9 9 -9 22q0 14 9 23z" />
    <glyph glyph-name="uniF109" unicode="&#xf109;" horiz-adv-x="384" 
d="M384 192l-192 -192v112h-192v160h192v112z" />
    <glyph glyph-name="uniF10A" unicode="&#xf10a;" horiz-adv-x="192" 
d="M25 35q-3 -3 -9 -3q-7 0 -11.5 5t-4.5 12v286q0 7 4.5 12t11.5 5q5 0 8 -3l3 -2l156 -136q9 -9 9 -19t-9 -19l-156 -136z" />
    <glyph glyph-name="uniF10B" unicode="&#xf10b;" horiz-adv-x="352" 
d="M243 320l100 -105q9 -9 9 -23q0 -13 -9 -22l-100 -106q-9 -9 -21.5 -9t-21.5 9t-9 23t9 23l48 50h-217q-13 0 -22 9.5t-9 22.5t9 22.5t22 9.5h217l-49 50q-9 9 -9 23t9 23t22 9t22 -9z" />
    <glyph glyph-name="uniF10C" unicode="&#xf10c;" horiz-adv-x="384" 
d="M192 384l192 -192h-112v-192h-160v192h-112z" />
    <glyph glyph-name="uniF10D" unicode="&#xf10d;" horiz-adv-x="320" 
d="M317 121q3 -3 3 -9q0 -7 -5 -11.5t-12 -4.5h-286q-7 0 -12 4.5t-5 11.5q0 5 3 8l2 3l136 156q9 9 19 9t19 -9l136 -156z" />
    <glyph glyph-name="uniF10E" unicode="&#xf10e;" horiz-adv-x="274" 
d="M9 259l105 100q9 9 23 9q13 0 22 -9l106 -100q9 -9 9 -21.5t-9 -21.5t-23 -9t-23 9l-50 48v-217q0 -13 -9.5 -22t-22.5 -9t-22.5 9t-9.5 22v217l-50 -49q-9 -9 -23 -9t-23 9t-9 22t9 22z" />
    <glyph glyph-name="uniF10F" unicode="&#xf10f;" 
d="M422 41q-36 -37 -85 -55t-105 -18q-50 0 -95 17q-43 16 -73 46q-31 31 -47 71q-17 43 -17 90q0 48 18 89t50 71q29 28 74 47q43 17 90 17q42 0 81 -12t69 -36t48 -60t18 -85q0 -38 -10 -64q-11 -29 -27 -46q-18 -19 -38 -28q-23 -10 -45 -10q-24 0 -39 12t-15 29h-3
q-9 -15 -28 -28t-46 -13q-41 0 -64 27q-23 28 -23 71q0 26 9 50q9 25 24 44q14 18 38 31q23 12 49 12q20 0 38 -10q16 -10 21 -24h1l5 24h54l-24 -113q-2 -12 -3 -19q-2 -14 -2 -19q0 -11 4 -18t15 -7q24 0 39 26q16 27 16 68q0 36 -12 64q-11 25 -34 47q-21 20 -52 29
q-30 9 -65 9q-40 0 -70 -13q-31 -13 -54 -38q-24 -26 -35 -56q-13 -34 -13 -69q0 -42 13 -72q14 -32 37 -54q25 -23 57 -35q33 -12 72 -12q47 0 85 16q32 13 65 43zM231 260q-16 0 -25 -8q-13 -11 -19 -22q-6 -10 -11 -28q-4 -13 -4 -30q0 -10 1 -16q1 -8 6 -15q4 -6 12 -11
t19 -5q15 0 28 8q10 6 19 21q9 14 11 26q3 15 3 27q0 13 -1 19q-1 7 -7 17q-5 7 -12 12q-8 5 -20 5z" />
    <glyph glyph-name="uniF110" unicode="&#xf110;" 
d="M416 288l32 -320h-448l32 320h64v4q0 51 36.5 87.5t87.5 36.5h8q51 0 87.5 -36.5t36.5 -87.5v-4h64zM128 292v-4h192v4q0 38 -27 65t-65 27h-8q-38 0 -65 -27t-27 -65zM36 0h376l-25 256h-35v-36q16 -10 16 -28q0 -14 -9 -23t-23 -9t-23 9t-9 23q0 18 16 28v36h-192v-36
q16 -10 16 -28q0 -14 -9 -23t-23 -9t-23 9t-9 23q0 18 16 28v36h-35z" />
    <glyph glyph-name="uniF111" unicode="&#xf111;" 
d="M10 64q-10 0 -10 10v236q0 10 10 10h381q10 0 10 -10v-54h37q10 0 10 -10v-108q0 -10 -10 -10h-37v-54q0 -10 -10 -10h-381zM225 288l-100 -111h61l-27 -81l100 111h-61z" />
    <glyph glyph-name="uniF112" unicode="&#xf112;" 
d="M438 256q10 0 10 -10v-108q0 -10 -10 -10h-37v-54q0 -10 -10 -10h-381q-10 0 -10 10v236q0 10 10 10h381q10 0 10 -10v-54h37zM416 160v64h-15h-32v32v32h-337v-192h337v32v32h32h15z" />
    <glyph glyph-name="uniF113" unicode="&#xf113;" 
d="M438 256q10 0 10 -10v-108q0 -10 -10 -10h-37v-54q0 -10 -10 -10h-381q-10 0 -10 10v236q0 10 10 10h381q10 0 10 -10v-54h37z" />
    <glyph glyph-name="uniF114" unicode="&#xf114;" 
d="M438 256q10 0 10 -10v-108q0 -10 -10 -10h-37v-54q0 -10 -10 -10h-381q-10 0 -10 10v236q0 10 10 10h381q10 0 10 -10v-54h37zM416 160v64h-15h-32v32v32h-81l32 -192h49v32v32h32h15z" />
    <glyph glyph-name="uniF115" unicode="&#xf115;" 
d="M10 64q-10 0 -10 10v236q0 10 10 10h381q10 0 10 -10v-54h37q10 0 10 -10v-108q0 -10 -10 -10h-37v-54q0 -10 -10 -10h-381zM369 288h-209l32 -192h177v32v32h32h15v64h-15h-32v32v32z" />
    <glyph glyph-name="uniF116" unicode="&#xf116;" horiz-adv-x="256" 
d="M12 304q16 16 19 12l68 -65v0q3 -4 5.5 -5t4.5 2v156v2q0 10 12 10q5 0 9 -4q117 -113 122 -117q8 -7 1 -14l-84 -81q-4 -4 -4 -8l4 -8l84 -81q7 -7 -1 -14l-122 -117q-4 -4 -9 -4q-12 0 -12 10v2v156q-2 3 -4.5 1.5t-5.5 -4.5v-1l-68 -64q-3 -4 -19 12q-14 14 -11 18
l90 86q4 3 4 8l-4 8l-90 86q-3 4 11 18zM152 328v-79q2 -4 4.5 -3t5.5 4l30 30q3 3 3 7t-3 7l-30 30q-10 10 -10 4zM152 135v-79q0 -6 10 4l30 30q3 3 3 7t-3 7l-30 30q-3 3 -5.5 4t-4.5 -3z" />
    <glyph glyph-name="uniF117" unicode="&#xf117;" 
d="M112 320q-14 0 -23 9t-9 23v32q0 14 9 23t23 9t23 -9t9 -23v-32q0 -14 -9 -23t-23 -9zM336 320q-14 0 -23 9t-9 23v32q0 14 9 23t23 9t23 -9t9 -23v-32q0 -14 -9 -23t-23 -9zM440 384q8 0 8 -8v-400q0 -8 -8 -8h-432q-8 0 -8 8v400q0 8 8 8h56v-41q0 -16 14.5 -27.5
t33.5 -11.5t33.5 11.5t14.5 27.5v41h128v-41q0 -16 15 -27.5t34 -11.5q18 0 32.5 11.5t14.5 27.5v41h56zM400 16v256h-352v-256h352z" />
    <glyph glyph-name="uniF118" unicode="&#xf118;" horiz-adv-x="416" 
d="M382 301q14 0 24 -9.5t10 -23.5v-202q0 -14 -10 -24t-24 -10h-348q-14 0 -24 10t-10 24v202q0 14 10 23.5t24 9.5h69l39 40q9 11 25 11h84q13 0 23 -10v0l41 -41h67zM208 82q38 0 65 27.5t27 65.5t-27 65.5t-65 27.5t-65 -27.5t-27 -65.5t27 -65.5t65 -27.5zM376 248
q14 0 14 14t-14 14t-14 -14t14 -14zM208 245q29 0 49.5 -20.5t20.5 -49.5t-20.5 -49.5t-49.5 -20.5t-49.5 20.5t-20.5 49.5t20.5 49.5t49.5 20.5z" />
    <glyph glyph-name="uniF119" unicode="&#xf119;" 
d="M420 352q12 0 20 -8t8 -20v-264q0 -12 -8 -20t-20 -8h-392q-12 0 -20 8t-8 20v0v264v0q0 12 8 20t20 8h392zM45 320q-11 0 -13 -12v-20h384v20q-2 12 -13 12h-358zM403 64q11 0 13 12v116h-384v-116q2 -12 13 -12h358zM64 128v16h192v-16h-192zM64 96v16h96v-16h-96z
M320 96v48h64v-48h-64z" />
    <glyph glyph-name="uniF11A" unicode="&#xf11a;" horiz-adv-x="416" 
d="M76 48q-32 0 -54 20.5t-22 50.5v209q0 30 22 51t54 21h264q32 0 54 -21t22 -51v-209q0 -30 -22 -50.5t-54 -20.5h-4v-64l-86 59t-21 5h-153zM304 256q-14 0 -23 -9t-9 -23t9 -23t23 -9t23 9t9 23t-9 23t-23 9zM208 256q-14 0 -23 -9t-9 -23t9 -23t23 -9t23 9t9 23t-9 23
t-23 9zM112 256q-14 0 -23 -9t-9 -23t9 -23t23 -9t23 9t9 23t-9 23t-23 9z" />
    <glyph glyph-name="uniF11B" unicode="&#xf11b;" horiz-adv-x="416" 
d="M76 48q-32 0 -54 20.5t-22 50.5v209q0 30 22 51t54 21h264q32 0 54 -21t22 -51v-209q0 -30 -22 -50.5t-54 -20.5h-4v-64l-86 59t-21 5h-153z" />
    <glyph glyph-name="uniF11C" unicode="&#xf11c;" horiz-adv-x="416" 
d="M246 82l26 -18q-3 -15 -18 -23.5t-34 -8.5h-90q-7 0 -13 -3l-53 -45v48h-16q-20 0 -34 11.5t-14 29.5v129q0 19 13.5 32t32.5 13h2v-101q0 -25 19 -42t45 -17h117q9 0 17 -5zM353 400q26 0 44.5 -17.5t18.5 -42.5v-168q0 -25 -18.5 -42.5t-44.5 -17.5h-17v-64l-75 60
q-4 4 -17 4h-101q-26 0 -44.5 17.5t-18.5 42.5v98v70q0 26 15 43t41 17h217z" />
    <glyph glyph-name="uniF11D" unicode="&#xf11d;" horiz-adv-x="416" 
d="M208 -1q-86 0 -147 58.5t-61 141.5t61 142t147 59t147 -59t61 -142q0 -59 -33 -108l-2 -2t-1 -2q-4 -8 -4 -15l22 -88l-84 31q-4 2 -12 2q-3 0 -11 -2q-1 0 -1 -0.5t-1 -0.5q-37 -15 -81 -15zM304 224q-14 0 -23 -9t-9 -23t9 -23t23 -9t23 9t9 23t-9 23t-23 9zM208 224
q-14 0 -23 -9t-9 -23t9 -23t23 -9t23 9t9 23t-9 23t-23 9zM112 224q-14 0 -23 -9t-9 -23t9 -23t23 -9t23 9t9 23t-9 23t-23 9z" />
    <glyph glyph-name="uniF11E" unicode="&#xf11e;" horiz-adv-x="416" 
d="M208 -1q-86 0 -147 58.5t-61 141.5t61 142t147 59t147 -59t61 -142q0 -59 -33 -108l-2 -2t-1 -2q-4 -8 -4 -15l22 -88l-84 31q-4 2 -12 2q-3 0 -11 -2q-1 0 -1 -0.5t-1 -0.5q-37 -15 -81 -15z" />
    <glyph glyph-name="uniF11F" unicode="&#xf11f;" horiz-adv-x="416" 
d="M25 57l-1 1v2q-24 35 -24 77q0 64 49 106q-4 -22 -4 -34q0 -69 51 -118.5t123 -49.5q23 0 44 6q-45 -53 -115 -53q-27 0 -58 12h-1q-4 2 -8 2q-3 0 -9 -2l-56 -22l12 63q0 5 -3 10zM242 400q72 0 123 -49.5t51 -118.5q0 -47 -28 -90l-1 -1q-1 -1 -1 -2q-3 -6 -3 -12
l17 -74l-69 26q-6 2 -10 2q-3 0 -9 -2l-2 -1q-8 -3 -24 -7q-21 -6 -44 -6q-72 0 -122.5 49t-50.5 118q0 18 3 35q12 57 60 95t110 38z" />
    <glyph glyph-name="uniF120" unicode="&#xf120;" 
d="M224 416q93 0 158.5 -65.5t65.5 -158.5t-65.5 -158.5t-158.5 -65.5t-158.5 65.5t-65.5 158.5t65.5 158.5t158.5 65.5zM339 267q1 1 1 3q0 3 -1 4l-31 24q-1 1 -4 1q-2 0 -3 -1l-111 -143l-45 43q-3 3 -6 3q-1 0 -4 -3l-25 -25l-1 -1q-1 -1 -1 -4q0 -2 1 -3l2 -1l79 -76
q3 -3 5 -3t5 3z" />
    <glyph glyph-name="uniF121" unicode="&#xf121;" horiz-adv-x="416" 
d="M400 376q13 -10 16 -26.5t-7 -30.5l-207 -302q-10 -13 -25.5 -16t-28.5 7q-8 6 -42 42.5l-64 70.5l-31 34q-11 12 -11 29t12 29t28 11.5t27 -13.5l99 -107l180 263q10 13 25.5 16t28.5 -7z" />
    <glyph glyph-name="uniF122" unicode="&#xf122;" horiz-adv-x="416" 
d="M414 338q2 -4 2 -6t-2 -6l-249 -320q-6 -6 -9 -6q-5 0 -10 5l-141 136l-3 3q-2 4 -2 6q0 1 2 5l2 2l44 46q6 6 8 6q4 0 10 -6l80 -78l200 257q2 2 6 2q3 0 7 -2z" />
    <glyph glyph-name="uniF123" unicode="&#xf123;" 
d="M224 150v0l174 167q8 8 16 0l31 -30q8 -8 0 -16l-213 -204q-3 -3 -8 -3t-8 3l-213 204q-8 8 0 16l31 30q8 8 16 0z" />
    <glyph glyph-name="uniF124" unicode="&#xf124;" horiz-adv-x="256" 
d="M86 192l167 -174q8 -8 0 -16l-30 -31q-8 -8 -16 0l-204 213q-3 3 -3 8t3 8l204 213q7 7 16 -1l30 -30q8 -8 0 -16l-167 -174v0z" />
    <glyph glyph-name="uniF125" unicode="&#xf125;" horiz-adv-x="256" 
d="M170 192v0l-167 174q-8 8 0 16l30 30q9 8 16 1l204 -213q3 -3 3 -8t-3 -8l-204 -213q-8 -8 -16 0l-30 31q-8 8 0 16z" />
    <glyph glyph-name="uniF126" unicode="&#xf126;" 
d="M224 234l-174 -167q-8 -8 -16 0l-31 30q-8 8 0 16l213 204q3 3 8 3t8 -3l213 -204q8 -8 0 -16l-31 -30q-8 -8 -16 0l-174 167v0z" />
    <glyph glyph-name="uniF127" unicode="&#xf127;" horiz-adv-x="352" 
d="M80 288q3 33 28 40l1 1q21 5 21 20v21q0 19 13.5 32.5t32.5 13.5t32.5 -13.5t13.5 -32.5v-21q0 -16 21 -21h2q24 -7 27 -40h-192zM176 384q-13 0 -13 -14t13 -14q14 0 14 14t-14 14zM325 384q11 0 19 -8t8 -20v-360q0 -12 -8 -20t-19 -8h-149h-148q-11 0 -19.5 8t-8.5 20
v360q0 12 8.5 20t19.5 8h73v-13q0 -8 -5.5 -13.5t-13.5 -5.5h-37q-12 0 -12 -13v-327q0 -12 11 -12h265q11 0 11 12v327q0 13 -12 13h-37q-8 0 -14 5.5t-6 13.5v13h74zM64 224v32h112v-32h-112zM64 32v32h160v-32h-160zM64 96v32h129v-32h-129zM64 160v32h208v-32h-208z" />
    <glyph glyph-name="uniF128" unicode="&#xf128;" 
d="M224 415q93 0 158.5 -65.5t65.5 -158.5t-65.5 -158.5t-158.5 -65.5t-158.5 65.5t-65.5 158.5t65.5 158.5t158.5 65.5zM332 116l-75 75l76 75q6 6 0 12l-22 21q-3 3 -6 3q-2 0 -5 -3l-76 -74l-76 74q-3 3 -5 3q-3 0 -6 -3l-21 -21q-6 -6 0 -12l76 -75l-76 -76q-2 -1 -2 -5
t2 -6l21 -22q2 -2 6 -2t6 2l75 76l76 -75q3 -3 5 -3q3 0 6 3l21 21q3 2 3 6q0 3 -3 6z" />
    <glyph glyph-name="uniF129" unicode="&#xf129;" horiz-adv-x="384" 
d="M374 61q10 -11 10 -26t-10 -25t-25 -10t-26 10l-131 131l-131 -131q-11 -10 -25 -10t-25 10t-11 25t11 26l130 131l-130 131q-11 11 -11 26t11 25t25 10t25 -10l131 -131l131 131q11 10 26 10t25 -10t10 -25t-10 -26l-131 -131z" />
    <glyph glyph-name="uniF12A" unicode="&#xf12a;" horiz-adv-x="384" 
d="M380 61q4 -4 4 -10t-4 -10l-38 -37q-4 -4 -9 -4q-6 0 -10 4l-131 131l-131 -131q-4 -4 -9 -4q-6 0 -10 4l-38 37q-4 4 -4 10t4 10l132 131l-132 130q-10 10 0 20l37 38q6 4 10 4q6 0 10 -4l131 -130l131 130q6 4 10 4q6 0 10 -4l37 -38q10 -10 0 -19l-132 -130z" />
    <glyph glyph-name="uniF12B" unicode="&#xf12b;" 
d="M366 215q34 0 58 -24.5t24 -59.5q0 -34 -24 -58.5t-58 -24.5h-276q-37 0 -63.5 27t-26.5 64q0 30 17 53.5t44 32.5q4 22 20.5 36.5t38.5 14.5q12 0 26 -7q14 30 42.5 48.5t62.5 18.5q48 0 81.5 -34.5t33.5 -83.5v-3z" />
    <glyph glyph-name="uniF12C" unicode="&#xf12c;" horiz-adv-x="384" 
d="M379 348q13 -12 0 -25l-32 -31l-55 55l31 32q13 13 25 0zM282 338l55 -55l-177 -173l-64 -14l14 64zM320 192l32 32v-201q0 -10 -6.5 -16.5t-16.5 -6.5h-306q-10 0 -16.5 6.5t-6.5 16.5v306q0 10 6.5 16.5t16.5 6.5h201l-32 -32h-149q-11 0 -11 -10v-268q0 -10 10 -10
h269q9 0 9 10v150z" />
    <glyph glyph-name="uniF12D" unicode="&#xf12d;" 
d="M224 289q40 0 68.5 -28.5t28.5 -68.5t-28.5 -68.5t-68.5 -28.5t-68.5 28.5t-28.5 68.5t28.5 68.5t68.5 28.5zM224 148q18 0 31 13t13 31t-13 31t-31 13t-31 -13t-13 -31t13 -31t31 -13zM224 416q93 0 158.5 -65.5t65.5 -158.5t-65.5 -158.5t-158.5 -65.5t-158.5 65.5
t-65.5 158.5t65.5 158.5t158.5 65.5zM224 69q51 0 87 36t36 87t-36 87t-87 36t-87 -36t-36 -87t36 -87t87 -36z" />
    <glyph glyph-name="uniF12E" unicode="&#xf12e;" horiz-adv-x="288" 
d="M286 279q2 -6 2 -10v-245q0 -10 -6.5 -17t-15.5 -7h-243q-9 0 -16 7t-7 17v336q0 10 7 17t16 7h160q6 0 9 -2q4 -2 7 -5l84 -92zM48 269v-10q0 -3 3 -3h71q3 0 3 3v10q0 3 -3 3h-71q-3 0 -3 -3zM48 141v-10q0 -3 3 -3h123q2 0 2 3v10q0 3 -2 3h-123q-3 0 -3 -3zM208 67
v10q0 3 -2 3h-155q-3 0 -3 -3v-10q0 -3 3 -3h155q2 0 2 3zM240 195v10q0 3 -2 3h-187q-3 0 -3 -3v-10q0 -3 3 -3h187q2 0 2 3zM193 270h60l-71 78v-66q0 -12 11 -12z" />
    <glyph glyph-name="uniF12F" unicode="&#xf12f;" horiz-adv-x="288" 
d="M287 279q1 -3 1 -9v-244q0 -10 -6 -18t-15 -8h-243q-9 0 -16.5 8t-7.5 18v335q0 9 7.5 16t16.5 7h160q6 0 9 -2q6 -3 7 -4l83 -92q3 -3 4 -7zM193 337v-63h58zM32 32h224v210h-67q-11 0 -19.5 8.5t-8.5 19.5v82h-129v-320z" />
    <glyph glyph-name="uniF130" unicode="&#xf130;" horiz-adv-x="512" 
d="M0 272v32h512v-32h-512zM0 176v32h512v-32h-512zM0 80v32h512v-32h-512z" />
    <glyph glyph-name="uniF131" unicode="&#xf131;" horiz-adv-x="320" 
d="M303 128h-286q-17 0 -17 16q0 4 3 8l138 191q9 9 19 9t19 -9l138 -190q3 -5 3 -9q0 -16 -17 -16zM308 96q12 0 12 -12v-40q0 -12 -12 -12h-296q-12 0 -12 12v40q0 12 12 12h296z" />
    <glyph glyph-name="uniF132" unicode="&#xf132;" horiz-adv-x="416" 
d="M19 299q-10 5 -13 11q-2 6 0.5 8t11.5 2h191h191q9 0 11.5 -2t0.5 -8q-3 -6 -13 -11q-165 -90 -169 -92q-8 -4 -21 -4t-21 4q-4 2 -169 92zM408 295q7 1 7.5 0.5t0.5 -5.5v-205q0 -7 -7.5 -14t-14.5 -7h-185h-185q-8 0 -16 7t-8 14v205q0 9 9 5l25 -16.5l54.5 -36.5
l52.5 -35l-83 -93q-3 -3 -1 -5q1 -1 3 -0.5t3 1.5l98 83q21 -14 27 -17q8 -4 21 -4t21 4q6 3 27 17l98 -83q1 -1 3 -1.5t3 0.5t-2 5l-82 93l52 35l54 36.5z" />
    <glyph glyph-name="uniF133" unicode="&#xf133;" 
d="M224 320q110 0 224 -129q-27 -27 -34.5 -34t-36.5 -31t-47 -33t-47.5 -19t-58.5 -10q-36 0 -66 9t-60 31t-47 37.5t-51 50.5q65 65 115.5 96.5t108.5 31.5zM224 101q37 0 63.5 27t26.5 64t-26.5 64t-63.5 27t-63.5 -27t-26.5 -64t26.5 -64t63.5 -27zM224 224q0 -14 9 -23
t23 -9q10 0 20 7v-7q0 -22 -15 -37.5t-37 -15.5t-37 15.5t-15 37.5t15 37.5t37 15.5h8q-8 -10 -8 -21z" />
    <glyph glyph-name="uniF134" unicode="&#xf134;" horiz-adv-x="384" 
d="M317 319q7 0 10.5 -0.5t6 -5t2.5 -14.5v-28h-288v28q0 14 4.5 17t15.5 3h249zM269 352q11 0 15 -3t4 -16h-192q0 9 2.5 13t6 5t11.5 1h153zM368 278q18 -11 15 -41l-17 -184q-4 -21 -24 -21h-300q-20 0 -24 21l-17 185q-2 19 1 26t14 14l15 10v-32h321v32z" />
    <glyph glyph-name="uniF135" unicode="&#xf135;" horiz-adv-x="416" 
d="M400 240q7 0 11.5 -4.5t4.5 -10.5v-210q0 -6 -4.5 -10.5t-11.5 -4.5h-384q-7 0 -11.5 4.5t-4.5 10.5v210q0 13 13 15q-3 2 -4 7l-9 45q-3 14 13 18l370 74q14 4 18 -12l9 -46q4 -14 -12 -18l-342 -68h344zM257 46l-20 58l51 36h-62l-20 58l-19 -58h-63l51 -36l-19 -58
l50 36z" />
    <glyph glyph-name="uniF136" unicode="&#xf136;" 
d="M115 -4q-52 29 -83.5 81.5t-31.5 114.5q0 93 65.5 158.5t158.5 65.5q35 0 68 -11q1 -1 2.5 -1t2.5 -1q19 -6 35 -15q53 -29 84.5 -81.5t31.5 -114.5q0 -93 -65.5 -158.5t-158.5 -65.5q-35 0 -68 11q-1 1 -2.5 1t-2.5 1q-24 8 -35 14zM86 291q-32 -45 -32 -99
q0 -48 24.5 -88t65.5 -62q16 -8 19 -9q1 -1 2.5 -1t2.5 -1q9 -3 29 -7q9 -2 27 -2q54 0 99 32l-52 53l36 40l55 -54q32 45 32 99q0 49 -25 89.5t-66 61.5q-12 6 -18 8q-1 1 -2.5 1t-2.5 1q-9 3 -29 7q-9 2 -27 2q-55 0 -100 -32l53 -52l-36 -41zM178 58l38 113h-85l139 155
l-38 -113h85z" />
    <glyph glyph-name="uniF137" unicode="&#xf137;" horiz-adv-x="320" 
d="M0 160l224 256l-51 -192h147l-224 -256l51 192h-147z" />
    <glyph glyph-name="uniF139" unicode="&#xf139;" horiz-adv-x="384" 
d="M366 256q12 0 15.5 -4t2.5 -14l-12 -186q-1 -7 -2 -10.5t-6 -6.5t-13 -3h-317q-12 0 -16 5t-5 15l-13 184q-2 20 18 20h348zM362 305l2 -33h-344q0 12 6 63q1 9 4 12.5t6.5 4t14.5 0.5h75q20 0 23 -1.5t14 -13.5q11 -13 17 -15t24 -2h143q15 0 15 -15z" />
    <glyph glyph-name="uniF13A" unicode="&#xf13a;" horiz-adv-x="384" 
d="M224 150q-88 0 -137.5 -19t-86.5 -83l5.5 22.5t20 50t39 63t65 50t94.5 22.5v80l160 -144l-160 -134v92z" />
    <glyph glyph-name="uniF13D" unicode="&#xf13d;" horiz-adv-x="384" 
d="M347 192q0 -34 37 -56q-5 -16 -16 -38q-34 8 -62 -20q-25 -25 -16 -62q-22 -11 -38 -16q-22 37 -60 37t-60 -37q-18 6 -39 16q9 38 -15 62t-62 15q-10 21 -16 39q37 22 37 60q0 34 -37 56q7 22 16 38q34 -8 62 20q24 24 15 62q21 10 39 16q22 -37 60 -37t60 37
q18 -6 39 -16q-9 -38 15 -62q28 -28 62 -20q11 -22 16 -38q-37 -22 -37 -56zM192 94q40 0 69 29t29 69t-29 69t-69 29t-69 -29t-29 -69t29 -69t69 -29z" />
    <glyph glyph-name="uniF13E" unicode="&#xf13e;" horiz-adv-x="384" 
d="M384 154h-44q-6 -19 -17 -39l32 -32l-54 -54l-33 32q-14 -8 -38 -15v-46h-76v46q-26 8 -38 15l-33 -32l-54 54l32 32q-11 20 -17 39h-44v76h43q8 27 16 41l-30 30l54 54l29 -29q17 10 42 17v41h76v-41q25 -7 42 -17l29 29l54 -54l-30 -30q11 -20 16 -41h43v-76zM192 138
q22 0 38 16t16 38t-16 38t-38 16t-38 -16t-16 -38t16 -38t38 -16z" />
    <glyph glyph-name="uniF13F" unicode="&#xf13f;" horiz-adv-x="320" 
d="M64 295q0 -7 -7 -7h-50q-7 0 -7 7v50q0 7 7 7h50q7 0 7 -7v-50zM192 295q0 -7 -7 -7h-50q-7 0 -7 7v50q0 7 7 7h50q7 0 7 -7v-50zM320 295q0 -7 -7 -7h-50q-7 0 -7 7v50q0 7 7 7h50q7 0 7 -7v-50zM64 167q0 -7 -7 -7h-50q-7 0 -7 7v50q0 7 7 7h50q7 0 7 -7v-50zM192 167
q0 -7 -7 -7h-50q-7 0 -7 7v50q0 7 7 7h50q7 0 7 -7v-50zM320 167q0 -7 -7 -7h-50q-7 0 -7 7v50q0 7 7 7h50q7 0 7 -7v-50zM64 39q0 -7 -7 -7h-50q-7 0 -7 7v50q0 7 7 7h50q7 0 7 -7v-50zM192 39q0 -7 -7 -7h-50q-7 0 -7 7v50q0 7 7 7h50q7 0 7 -7v-50zM320 39q0 -7 -7 -7
h-50q-7 0 -7 7v50q0 7 7 7h50q7 0 7 -7v-50z" />
    <glyph glyph-name="uniF140" unicode="&#xf140;" horiz-adv-x="384" 
d="M383 210q2 -39 -2 -88.5t-11 -73.5q-14 -48 -30 -64t-42 -16q-24 0 -41 17.5t-17 41.5v106q0 25 15.5 42t37.5 17q28 0 44 -24q11 7 13 22q4 33 -5 64q-5 17 -18 24.5t-18 13.5q-4 6 -8 10l-10 10q-3 3 -5 4q-20 17 -34 23q-27 13 -60 13q-34 0 -61 -13q-11 -5 -33 -23
q-2 -1 -5 -4l-10 -10q-4 -4 -8 -10q-5 -6 -18 -13.5t-18 -24.5q-9 -32 -5 -64q1 -7 4 -12.5t6 -7.5l3 -2q16 24 44 24q22 0 37.5 -17.5t15.5 -41.5v-106q0 -24 -17 -41.5t-41 -17.5q-26 0 -42 16t-30 64q-7 24 -11 73.5t-2 88.5q4 89 56 145q19 20 24 23q13 10 29 18
q38 20 82 20t82 -20q14 -7 28 -18q9 -7 25 -23q52 -56 56 -145z" />
    <glyph glyph-name="uniF141" unicode="&#xf141;" horiz-adv-x="416" 
d="M382 352q34 -35 34 -85.5t-34 -85.5l-174 -181l-174 181q-34 35 -34 85.5t34 85.5q30 32 73.5 32t73.5 -32l27 -28l28 28q30 32 73 32t73 -32z" />
    <glyph glyph-name="uniF142" unicode="&#xf142;" 
d="M224 416q93 0 158.5 -65.5t65.5 -158.5t-65.5 -158.5t-158.5 -65.5t-158.5 65.5t-65.5 158.5t65.5 158.5t158.5 65.5zM244 89q1 13 -7.5 22t-21.5 9q-12 0 -21 -8t-9 -21t8 -21.5t20 -8.5q13 0 22 7.5t9 20.5zM293 217q12 17 12 36q0 33 -25 52q-24 18 -62 18
q-28 0 -47 -13q-28 -19 -28 -68h49q0 21 4 27q9 15 26 15t25 -11t8 -23q0 -8 -8 -20q-2 -4 -10 -10q-26 -15 -35 -30q-8 -13 -10 -41q0 -4 4 -4h39q5 0 5 4q0 11 2 19q3 9 12 17l14 9q19 14 25 23z" />
    <glyph glyph-name="uniF143" unicode="&#xf143;" horiz-adv-x="256" 
d="M217 371q39 -30 39 -83q0 -31 -19 -57q-9 -11 -40 -36l-21 -14q-15 -12 -20 -28q-3 -9 -3 -29q0 -6 -7 -6h-62q-7 0 -7 5q2 46 15 66q7 10 21 22t25 19l11 7q11 9 15 15q12 17 12 32q0 22 -11 36q-15 18 -41 18q-25 0 -40 -24q-7 -11 -7 -43h-77q0 79 44 108q29 20 75 20
q61 0 98 -28zM114 78q21 -1 34 -14t12 -34t-15 -33.5t-34 -11.5t-33 13.5t-12 33.5t14.5 34t33.5 12z" />
    <glyph glyph-name="uniF144" unicode="&#xf144;" horiz-adv-x="384" 
d="M384 160h-48v-160h-96v128h-96v-128h-96v160h-48l192 224z" />
    <glyph glyph-name="uniF147" unicode="&#xf147;" 
d="M336 224q-20 0 -34 14t-14 34t14 34t34 14t34 -14t14 -34t-14 -34t-34 -14zM420 384q12 0 20 -8t8 -20v-328q0 -12 -8 -20t-20 -8h-392q-12 0 -20 8t-8 20v328q0 12 8 20t20 8h392zM317 186l99 -106v260q0 12 -13 12h-358q-11 0 -13 -12v-260l126 152q8 8 17 8
q11 0 17 -7l54 -59l4 -4q6 -4 11 -4t12 5l18 16q7 5 13 5q8 0 13 -6z" />
    <glyph glyph-name="uniF148" unicode="&#xf148;" 
d="M426 308q10 -1 16.5 -8t5.5 -16l-14 -263q-1 -10 -8 -16t-17 -5l-330 16q-10 1 -16.5 7t-5.5 16l2 46l-15 -1q-9 -1 -15.5 4.5t-7.5 13.5l-21 236q-1 8 4.5 14.5t14.5 7.5l296 24q9 1 15.5 -4.5t7.5 -13.5l5 -54zM71 302q1 9 7.5 15.5t16.5 6.5l219 -11l-2 31h-1v1
q-2 8 -10 8l-261 -22q-10 0 -10 -9v-1l16 -178l18 25zM405 66l10 198v1q0 10 -11 10l-58 3l-29 2l-204 9q-10 0 -12 -9v-1l-3 -63l-7 -128v-7l6 7l102 109q6 6 14 6q9 0 14 -7l43 -49l3 -3q4 -4 10 -4q3 0 9 3l17 12q5 4 11 4q8 0 11 -5l27 -33zM341 186q-15 0 -25 10
t-10 25t10.5 25t24.5 10q15 0 25 -10.5t10 -24.5t-10.5 -24.5t-24.5 -10.5z" />
    <glyph glyph-name="uniF149" unicode="&#xf149;" 
d="M448 195q1 -93 -63.5 -159t-157.5 -68q-93 -1 -159 63.5t-68 157.5q-1 93 63.5 159t157.5 68q93 1 159 -63.5t68 -157.5zM224 336q-14 0 -23 -9t-9 -23t9 -23t23 -9t23 9t9 23t-9 23t-23 9zM268 53v11h-22v172h-66v-12h22v-160h-22v-11h88z" />
    <glyph glyph-name="uniF14A" unicode="&#xf14a;" horiz-adv-x="128" 
d="M96 0h32v-16h-128v16h32v240h-32v16h96v-256zM64 304q-20 0 -34 14t-14 34t14 34t34 14t34 -14t14 -34t-14 -34t-34 -14z" />
    <glyph glyph-name="uniF14B" unicode="&#xf14b;" horiz-adv-x="416" 
d="M376 315q40 -54 40 -123q0 -86 -61 -147t-147 -61t-147 61t-61 147t61 147t147 61q69 0 123 -40q8 5 18 5q13 0 22.5 -9.5t9.5 -22.5q0 -10 -5 -18zM344 56q26 26 41 61q15 36 15 75t-15 75q-10 21 -21 38q-8 -4 -15 -4q-13 0 -22.5 9.5t-9.5 22.5q0 7 4 15
q-17 11 -38 21q-36 15 -75 15t-75 -15q-35 -15 -61 -41t-41 -61q-15 -36 -15 -75t15 -75q15 -35 41 -61t61 -41q36 -15 75 -15t75 15q35 15 61 41zM112 192q0 96 96 96t96 -96t-96 -96t-96 96z" />
    <glyph glyph-name="uniF1F9" unicode="&#xf1f9;" horiz-adv-x="288" 
d="M0 375q0 9 9 9h270q9 0 9 -9v-366q0 -9 -9 -9h-270q-9 0 -9 9v366zM144 10q14 0 14 14q0 6 -4.5 10t-9.5 4q-14 0 -14 -14t14 -14zM32 329v-275q0 -6 6 -6h211q7 0 7 6v275q0 7 -7 7h-211q-6 0 -6 -7z" />
    <glyph glyph-name="uniF1FA" unicode="&#xf1fa;" horiz-adv-x="192" 
d="M168 384q10 0 17 -7t7 -17v-336q0 -10 -7 -17t-17 -7h-144q-10 0 -17 7t-7 17v336q0 10 7 17t17 7h144zM80 348q0 -4 4 -4h24q4 0 4 4t-4 4h-24q-4 0 -4 -4zM68 352q-4 0 -4 -4t4 -4t4 4t-4 4zM96 16q16 0 16 16t-16 16t-16 -16t16 -16zM176 64v256h-160v-256h160z" />
    <glyph glyph-name="uniF1FB" unicode="&#xf1fb;" horiz-adv-x="224" 
d="M112 137q14 0 23 -9.5t9 -22.5t-9 -22.5t-23 -9.5t-23 9.5t-9 22.5t9 22.5t23 9.5zM196 384q11 0 19.5 -8t8.5 -20v-328q0 -12 -8.5 -20t-19.5 -8h-168q-11 0 -19.5 8t-8.5 20v328q0 12 8.5 20t19.5 8h168zM112 32q30 0 51 21t21 51t-21 51t-51 21t-51 -21t-21 -51
t21 -51t51 -21zM192 221v118q-2 11 -12 13h-136q-12 -2 -12 -15v-114q0 -15 14 -15h131q13 0 15 13z" />
    <glyph glyph-name="uniF1FC" unicode="&#xf1fc;" horiz-adv-x="512" 
d="M480 342v-262h-448v262q0 10 10 10h428q10 0 10 -10zM448 112v208h-384v-208h384zM0 59v5h512v-5q-55 -16 -105 -21.5t-151 -5.5t-151 5.5t-105 21.5z" />
    <glyph glyph-name="uniF1FD" unicode="&#xf1fd;" horiz-adv-x="422" 
d="M412 69q8 -1 10 -11.5t-3 -19.5t-12 -8q-21 -1 -63 12q-16 -19 -39 -30q-18 -8 -45 -12t-71.5 7t-80.5 43q-74 67 -101 226q-14 86 -4 106q2 4 5 1q37 -39 88.5 -52.5t102 -21.5t79.5 -32q41 -33 63 -88t14 -104q5 -8 57 -16zM316 65q10 10 10 24q-45 15 -87.5 36.5
t-71 42.5t-50.5 39.5t-33 30.5l-10 11q4 -6 12 -16t33.5 -36.5t52 -49.5t66 -47t78.5 -35z" />
    <glyph glyph-name="uniF1FE" unicode="&#xf1fe;" horiz-adv-x="384" 
d="M192 240zM304 288q33 0 56.5 -23.5t23.5 -56.5v-32q0 -33 -23.5 -56.5t-56.5 -23.5h-112q-51 0 -73 48q-7 17 -7 32v32h48v-32q0 -14 9 -23t23 -9h112q14 0 23 9t9 23v32q0 14 -9 23t-23 9h-16q-3 14 -11 26t-15 17l-6 5h48zM266 240q6 -15 6 -32v-32h-48v32q0 14 -9 23
t-23 9h-112q-14 0 -23 -9t-9 -23v-32q0 -14 9 -23t23 -9h16q3 -14 11 -26t15 -17l6 -5h-48q-33 0 -56.5 23.5t-23.5 56.5v32q0 33 23.5 56.5t56.5 23.5h112q24 0 44.5 -13.5t29.5 -34.5z" />
    <glyph glyph-name="uniF1FF" unicode="&#xf1ff;" horiz-adv-x="239" 
d="M119 384q49 0 84.5 -35t35.5 -85q0 -51 -30 -117t-60 -107l-30 -40q-5 6 -13 17t-28.5 42.5t-36 62t-28.5 70.5t-13 72q0 50 35 85t84 35zM119 206q23 0 40 16.5t17 39.5t-17 40t-40 17t-39.5 -17t-16.5 -40t16.5 -39.5t39.5 -16.5z" />
    <glyph glyph-name="uniF200" unicode="&#xf200;" horiz-adv-x="384" 
d="M22 -32q-9 0 -15.5 6.5t-6.5 15.5v212q0 9 6.5 15.5t15.5 6.5h3h19v31q0 69 43 115t105 46v0q62 0 105 -46t43 -115v-31h22q9 0 15.5 -6.5t6.5 -15.5v-212q0 -9 -6.5 -15.5t-15.5 -6.5h-340zM97 255v-31h17h155h18v31q0 50 -28 80v1q-27 29 -67 29v0q-40 0 -67 -29v-1
q-28 -30 -28 -80z" />
    <glyph glyph-name="uniF201" unicode="&#xf201;" horiz-adv-x="334" 
d="M184 148v-58q37 6 61.5 34.5t24.5 67.5q0 21 -10 44q-8 15 -9 17l47 43q1 -1 3 -4q33 -44 33 -100v-4q-1 -53 -31.5 -95t-79.5 -59q-23 -8 -39 -9v-57l-76 67l-26 23l44 39zM0 196q1 54 32.5 96t80.5 59q20 7 37 8v57l76 -67l26 -23l-44 -39l-59 -51l1 58
q-37 -6 -61.5 -35t-24.5 -67q0 -22 10 -45q6 -13 9 -16l-47 -44q0 1 -1 2.5t-2 2.5q-33 46 -33 100v4z" />
    <glyph glyph-name="uniF202" unicode="&#xf202;" horiz-adv-x="168" 
d="M84 341q-16 0 -26.5 11t-10.5 27t10.5 26.5t26.5 10.5t26.5 -10.5t10.5 -26.5t-10.5 -27t-26.5 -11zM121 333q20 0 33.5 -14.5t13.5 -33.5v-114q0 -10 -8 -14.5t-16 0t-8 14.5v105h-5v-286q0 -13 -10.5 -19t-21 -1t-11.5 20v165h-1h-7v-165q0 -14 -11 -19.5t-21.5 0
t-10.5 19.5v286h-6v-105q0 -10 -7.5 -14.5t-15.5 0t-8 14.5v114q0 19 13.5 33.5t33.5 14.5h37h37z" />
    <glyph glyph-name="uniF203" unicode="&#xf203;" 
d="M441 311q7 -5 7 -14v-281q0 -10 -7 -14q-4 -2 -7 -2q-6 0 -8 2l-97 66l-97 -66q-8 -4 -15 0l-97 66l-97 -66q-7 -4 -15 0q-8 5 -8 14v281q0 9 7 14l105 71q8 4 15 0l97 -66l98 66q8 4 15 0zM103 95v242l-71 -50v-242zM135 95l73 -49v129l-4 -11q-5 1 -20 10l8 13
q8 -5 16 -8v109l-73 49v-101q11 -6 13 -7l-10 -13l-1 1q-1 1 -2 1v-123zM240 46l73 49v109l-1 -1v-1l-6 -6l-12 11l6 6q2 1 4 4.5t4 5.5l5 -5v119l-73 -49v-112h7l3 -15q-2 0 -5 -0.5t-4 -0.5h-1v-114zM416 46v242l-71 49v-88q2 1 4.5 1t3.5 1l4 -16l-5 -1q-5 -1 -7 -2v-137
zM97 227q-7 -2 -14 -7l-11 12q8 6 12 8q3 2 9 4l5 -15q-1 -1 -0.5 -1t-0.5 -1zM265 182q13 8 15 10l11 -12q-8 -8 -19 -13zM67 192v-1l-15 5v1q4 12 9 20l13 -9q-3 -4 -7 -16zM166 210q5 -6 11 -11l-11 -12q-2 2 -6 6.5t-6 6.5l-3 3l12 11q1 -1 3 -4zM376 218l-11 12l10 10
l-10 10l11 12l10 -11l11 11l11 -12l-10 -10l10 -10l-11 -12l-11 11z" />
    <glyph glyph-name="uniF204" unicode="&#xf204;" horiz-adv-x="288" 
d="M0 210q0 8 6 13.5t14 5.5t13.5 -5.5t5.5 -13.5v-14q0 -41 31 -72t74 -31t74 31t31 72v14q0 8 5.5 13.5t13.5 5.5t14 -5.5t6 -13.5v-14q0 -49 -30.5 -86.5t-77.5 -49.5h-2l-2 -1q-9 -3 -12 -13v-58q0 -8 -6 -14t-14 -6t-14 6t-6 14v58q-3 10 -12 13l-2 1h-2
q-47 12 -77.5 49.5t-30.5 86.5v14zM67 340q0 32 22.5 54t54.5 22t55 -22.5t23 -53.5v-144q0 -31 -23 -53t-55 -22t-54.5 22t-22.5 53v144z" />
    <glyph glyph-name="uniF205" unicode="&#xf205;" horiz-adv-x="160" 
d="M80 416q26 0 47 -16t29 -43q8 -24 2 -55q-3 -13 -14 -28q-4 -6 -11 -9q-1 0 -1 -0.5t-1 -0.5q-6 -2 -10 -3q-20 -5 -39 -5h-1h-1q-21 0 -41 5q-4 1 -10 3q-1 0 -1 0.5t-1 0.5q-7 3 -11 9q-11 15 -14 28q-6 31 2 55q8 27 29 43t47 16zM119 247q12 0 12 -12v-2
q-18 -240 -19 -252q-3 -13 -32 -13q-13 0 -21 3t-9 7l-2 3q0 5 -3.5 52.5l-8 109.5l-6.5 90v2q0 12 11 12h1l1 -1h1q1 0 3 -0.5t3 -0.5q9 -2 31 -2q20 0 29 2q1 0 3 0.5t3 0.5h1l1 1h1zM90 166v33q0 11 -10 11t-10 -11v-33q0 -11 10 -11t10 11z" />
    <glyph glyph-name="uniF206" unicode="&#xf206;" horiz-adv-x="256" 
d="M201 416q23 0 39 -15t16 -37v-28h-59v-37h59v-43h-59v-37h59v-43h-59v-37h59v-42q0 -22 -16 -37t-39 -15h-30v-77h-86v77h-30q-23 0 -39 15t-16 37v42h152v37h-152v43h152v37h-152v43h152v37h-152v28q0 22 16 37t39 15h146z" />
    <glyph glyph-name="uniF207" unicode="&#xf207;" 
d="M224 416q93 0 158.5 -65.5t65.5 -158.5t-65.5 -158.5t-158.5 -65.5t-158.5 65.5t-65.5 158.5t65.5 158.5t158.5 65.5zM352 176v32h-256v-32h256z" />
    <glyph glyph-name="uniF208" unicode="&#xf208;" horiz-adv-x="384" 
d="M353 224q13 0 22 -9.5t9 -22.5t-9 -22.5t-22 -9.5h-322q-13 0 -22 9.5t-9 22.5t9 22.5t22 9.5h322z" />
    <glyph glyph-name="uniF209" unicode="&#xf209;" horiz-adv-x="384" 
d="M0 160v64h384v-64h-384z" />
    <glyph glyph-name="uniF20A" unicode="&#xf20a;" 
d="M437 384q11 0 11 -11v-266q0 -11 -11 -11h-426q-11 0 -11 11v266q0 11 11 11h426zM416 128v224h-384v-224h384zM270 0h-92q-35 0 -34 7q0 2 4 5t12.5 8t13 8.5t4.5 6.5l1 45h45h45q1 -41 1 -45q0 -3 4.5 -6.5t13 -8.5t12.5 -8q12 -9 -11 -11z" />
    <glyph glyph-name="uniF20B" unicode="&#xf20b;" horiz-adv-x="384" 
d="M50 144q-21 0 -35.5 14t-14.5 34t14.5 34t35.5 14t35.5 -14t14.5 -34t-14.5 -34t-35.5 -14zM192 144q-21 0 -35.5 14t-14.5 34t14.5 34t35.5 14t35.5 -14t14.5 -34t-14.5 -34t-35.5 -14zM334 144q-21 0 -35.5 14t-14.5 34t14.5 34t35.5 14t35.5 -14t14.5 -34t-14.5 -34
t-35.5 -14z" />
    <glyph glyph-name="uniF20C" unicode="&#xf20c;" horiz-adv-x="384" 
d="M362 416q9 0 15.5 -6t6.5 -15v-303q0 -39 -12 -55q-13 -21 -43 -21h-37q-21 0 -36.5 13.5t-15.5 34.5t15.5 34.5t36.5 13.5h60v192l-208 -38v-232q0 -23 -13 -41q-1 -1 -2 -2.5t-1 -2.5l-2 -2q-15 -18 -38 -18h-37q-21 0 -36 13.5t-15 34.5t15 34.5t36 13.5h61v286
q1 10 8.5 19.5t18.5 12.5l218 33q3 1 5 1z" />
    <glyph glyph-name="uniF20D" unicode="&#xf20d;" horiz-adv-x="384" 
d="M353 224q13 0 22 -9.5t9 -22.5t-9 -22.5t-22 -9.5h-322q-13 0 -22 9.5t-9 22.5t9 22.5t22 9.5h322zM353 352q13 0 22 -9.5t9 -22.5t-9 -22.5t-22 -9.5h-322q-13 0 -22 9.5t-9 22.5t9 22.5t22 9.5h322zM353 96q13 0 22 -9.5t9 -22.5t-9 -22.5t-22 -9.5h-322q-13 0 -22 9.5
t-9 22.5t9 22.5t22 9.5h322z" />
    <glyph glyph-name="uniF20E" unicode="&#xf20e;" horiz-adv-x="320" 
d="M0 175v32h320v-32h-320zM0 271v32h320v-32h-320zM0 79v32h320v-32h-320z" />
    <glyph glyph-name="uniF20F" unicode="&#xf20f;" horiz-adv-x="160" 
d="M149 293q11 0 11 -12v-195q0 -39 -24 -63q-23 -23 -56 -23q-32 0 -56 23.5t-24 64.5v234q0 38 29 54q30 17 57 0q29 -18 29 -54l-1 -225q0 -20 -9 -32t-25 -12q-14 0 -24 11.5t-10 32.5v173q0 4 4 8t8 4q11 0 11 -12v-173q0 -21 11 -21q3 0 7 4q5 7 5 17v225q0 25 -17 34
q-18 10 -35 0q-17 -9 -17 -34v-234q0 -31 17 -47.5t40 -16.5t40 16t17 47v195q0 11 12 11z" />
    <glyph glyph-name="uniF210" unicode="&#xf210;" horiz-adv-x="256" 
d="M96 12q0 -12 -12 -12h-72q-12 0 -12 12v360q0 12 12 12h72q12 0 12 -12v-360zM244 384q12 0 12 -12v-360q0 -12 -12 -12h-72q-12 0 -12 12v360q0 12 12 12h72z" />
    <glyph glyph-name="uniF211" unicode="&#xf211;" 
d="M397 120h-42v51h-51v42h51v51h42v-51h51v-42h-51v-51zM384 0h-192h-192q0 26 2 40q4 20 81 49l29 10q23 8 27 12.5t4 26.5v6q0 12 -9 23.5t-14 40.5q-2 10 -6 16t-8 24q-3 9 -0.5 17t2.5 10l-4 33q-2 23 20 49.5t68 26.5t68 -26.5t20 -49.5l-4 -33q0 -2 2.5 -10t-0.5 -17
q-4 -18 -8 -24t-6 -16q-5 -29 -14 -40.5t-9 -23.5q0 -30 6 -34q2 -2 49 -19q2 -1 5 -2q77 -29 81 -49z" />
    <glyph glyph-name="uniF212" unicode="&#xf212;" 
d="M393 123q51 -19 53 -33l2 -90h-98q0 71 -1 77q-1 8 -2.5 13t-14.5 16t-38 21q-3 1 -9.5 3.5t-9.5 3.5q4 2 7 4t5 3.5t2.5 4.5t0.5 4.5v6v5.5q0 9 -6 18.5t-9 28.5q-1 6 -3.5 11t-5.5 17q-2 5 -0.5 11t1.5 7q0 3 -1 10t-1 12q-1 16 13 34t44 18t44.5 -18.5t13.5 -33.5
q0 -5 -1 -12t-1 -10q0 -2 1.5 -6.5t-0.5 -11.5q-3 -12 -5.5 -17t-3.5 -11q-3 -19 -9.5 -29t-6.5 -18q0 -21 5 -25q2 -1 34 -14zM325 0h-163h-162q0 65 2 77q4 18 69 43q40 15 45 20.5t5 34.5q0 10 -8 19.5t-12 34.5q-1 8 -4.5 14t-6.5 22q-2 8 -0.5 14.5t1.5 8.5
q-2 14 -3 29q-2 20 16.5 43.5t57.5 23.5t58 -24t17 -43q-1 -15 -3 -29q0 -2 2 -8t0 -15q-3 -16 -7 -22t-5 -14q-4 -25 -12 -34.5t-8 -19.5v-20t3 -11t9 -9.5t19 -7.5q3 -1 19 -7q65 -25 69 -43q2 -12 2 -47v-30z" />
    <glyph glyph-name="uniF213" unicode="&#xf213;" horiz-adv-x="384" 
d="M384 0h-192h-192q0 26 2 40q4 20 81 49l29 10q23 8 27 12.5t4 26.5v6q0 12 -9 23.5t-14 40.5q-2 10 -6 16t-8 24q-3 9 -0.5 17t2.5 10l-4 33q-2 23 20 49.5t68 26.5t68 -26.5t20 -49.5l-4 -33q0 -2 2.5 -10t-0.5 -17q-4 -18 -8 -24t-6 -16q-5 -29 -14 -40.5t-9 -23.5
q0 -30 6 -34q2 -2 49 -19q2 -1 5 -2q77 -29 81 -49z" />
    <glyph glyph-name="uniF214" unicode="&#xf214;" 
d="M250 136q0 -74 -6 -102q-1 -2 2 -4t3 -3l51 -33l3 -8l1 -18l-68 16l-12 -32l-12 32l-68 -16l1 18q0 6 2 8l52 33q0 1 3 3t2 4q-6 28 -6 102q0 3 -2 4.5t-4 1.5l-2 -1l-62 -13l-128 -49q0 25 9 31l183 131q5 63 5 113q0 21 8.5 49.5t18.5 28.5t18.5 -28.5t8.5 -49.5
l5 -113l183 -131q9 -6 9 -31l-128 49l-62 13q-8 2 -8 -5z" />
    <glyph glyph-name="uniF215" unicode="&#xf215;" horiz-adv-x="320" 
d="M309 215q11 -9 11 -23t-11 -23l-278 -166q-6 -3 -11 -3q-8 0 -14 6t-6 14v344q0 8 6 14t14 6q6 0 11 -3z" />
    <glyph glyph-name="uniF216" unicode="&#xf216;" 
d="M224 416q93 0 158.5 -65.5t65.5 -158.5t-65.5 -158.5t-158.5 -65.5t-158.5 65.5t-65.5 158.5t65.5 158.5t158.5 65.5zM352 176v32h-112v112h-32v-112h-112v-32h112v-112h32v112h112z" />
    <glyph glyph-name="uniF217" unicode="&#xf217;" horiz-adv-x="384" 
d="M353 224q13 0 22 -9.5t9 -22.5t-9 -22.5t-22 -9.5h-129v-129q0 -13 -9.5 -22t-22.5 -9t-22.5 9t-9.5 22v129h-129q-13 0 -22 9.5t-9 22.5t9 22.5t22 9.5h129v129q0 13 9.5 22t22.5 9t22.5 -9t9.5 -22v-129h129z" />
    <glyph glyph-name="uniF218" unicode="&#xf218;" horiz-adv-x="384" 
d="M384 224v-64h-160v-160h-64v160h-160v64h160v160h64v-160h160z" />
    <glyph glyph-name="uniF219" unicode="&#xf219;" 
d="M93 96h-93v54h101l13 84h-99v54h107l22 128h64l-22 -128h106l22 128h63l-22 -128h93v-54h-102l-12 -84h99v-54h-107l-22 -128h-63l22 128h-107l-22 -128h-63zM177 234l-12 -84h106l12 84h-106z" />
    <glyph glyph-name="uniF21A" unicode="&#xf21a;" 
d="M392 320q23 0 39.5 -14.5t16.5 -40.5v-131q0 -23 -17 -38.5t-39 -15.5h-40v-112h-8h-8h-224h-11h-5v112h-40q-22 0 -39 17.5t-17 44.5v123q0 27 16.5 41t39.5 14h40v64h256v-64h40zM336 -16v176h-224v-176h224zM336 320v48h-224v-48h224zM384 256v16h-17v-16h17zM128 112
v16h192v-16h-192zM128 64v16h192v-16h-192zM128 16v16h192v-16h-192z" />
    <glyph glyph-name="uniF21B" unicode="&#xf21b;" horiz-adv-x="416" 
d="M208 -16q-86 0 -147 61t-61 147t61 147t147 61t147 -61t61 -147t-61 -147t-147 -61z" />
    <glyph glyph-name="uniF21C" unicode="&#xf21c;" 
d="M352 96l-104 112h74q-5 48 -42.5 80t-87.5 32q-53 0 -90.5 -37.5t-37.5 -90.5t37.5 -90.5t90.5 -37.5q42 0 75 24l6 5l43 -46l-7 -6q-54 -41 -117 -41q-67 0 -119.5 42t-67.5 107q0 1 -1 3v1v2v1l-1 2v1q0 1 -0.5 2t-0.5 2q-2 12 -2 19v1v4v5v5v4v1q0 7 2 19q0 1 0.5 2
t0.5 2v1l1 1v1v3v1v1q1 1 1 2q15 65 67.5 107t119.5 42v0q16 0 31 -3h2h2q89 -16 133 -96q20 -35 23 -77h65z" />
    <glyph glyph-name="uniF21D" unicode="&#xf21d;" horiz-adv-x="416" 
d="M257 256q43 0 75 -21.5t47.5 -52t24.5 -61t10 -51.5l2 -22q-36 65 -69 83.5t-90 18.5v-92l-152 134l152 144v-80zM0 192l144 136v-57l-82 -79l82 -68v-58z" />
    <glyph glyph-name="uniF21E" unicode="&#xf21e;" horiz-adv-x="384" 
d="M384 48q-37 64 -86.5 83t-137.5 19v-92l-160 134l160 144v-80q52 0 94.5 -21.5t65.5 -52t38.5 -61t20.5 -51.5z" />
    <glyph glyph-name="uniF21F" unicode="&#xf21f;" horiz-adv-x="384" 
d="M381 61q7 -7 0 -14l-43 -44q-3 -3 -8 -3q-4 0 -7 3l-84 86q-38 -23 -80 -23q-65 0 -112 46.5t-47 112.5t47 112.5t112 46.5t111.5 -46.5t46.5 -112.5q0 -42 -21 -78zM159 322q-40 0 -68.5 -28.5t-28.5 -68.5t28.5 -68.5t68.5 -28.5t68 28.5t28 68.5t-28 68.5t-68 28.5z
" />
    <glyph glyph-name="uniF220" unicode="&#xf220;" horiz-adv-x="384" 
d="M288 70v59l38 31v-109q0 -19 -19 -19h-288q-8 0 -13.5 5.5t-5.5 13.5v218q0 19 19 19h120q-13 -8 -23.5 -17.5t-15.5 -14.5l-4 -6h-58v-180h250zM256 224q-61 0 -93.5 -20t-66.5 -76q0 7 1.5 18t10.5 39t24.5 50t48 39.5t75.5 17.5v60l128 -96l-128 -96v64z" />
    <glyph glyph-name="uniF221" unicode="&#xf221;" 
d="M338 267q-19 0 -34.5 -6.5t-32 -22.5t-25.5 -26.5t-28 -36.5q-22 -29 -34 -43.5t-34.5 -36t-48 -31t-54.5 -9.5h-47v63h47q19 0 34.5 6.5t33.5 25t24.5 27l28.5 37.5q21 28 33.5 42.5t34.5 35t47 29.5t55 9h29v54l81 -81l-81 -84v48h-29zM121 230q-35 35 -74 36h-47v63
h47q62 0 113 -48q-10 -12 -28 -36l-5.5 -8t-5.5 -7zM367 118v47l81 -84l-81 -81v54h-29q-64 0 -117 53q5 5 32 41q1 2 3.5 5t3.5 4q36 -39 78 -39h29z" />
    <glyph glyph-name="uniF222" unicode="&#xf222;" horiz-adv-x="384" 
d="M12 352h8q12 0 12 -12v-113l187 122q3 3 8 3q6 0 11 -5t5 -12v-63l118 78q2 2 8 2q15 0 15 -17v-286q0 -17 -15 -17q-3 0 -8 3l-118 78v-64q0 -7 -5 -12t-11 -5q-3 0 -8 3l-187 122v-113q0 -12 -12 -12h-8q-12 0 -12 12v296q0 12 12 12z" />
    <glyph glyph-name="uniF223" unicode="&#xf223;" horiz-adv-x="384" 
d="M372 352q12 0 12 -12v-296q0 -12 -12 -12h-8q-12 0 -12 12v113l-187 -122q-5 -3 -8 -3q-15 0 -15 17v64l-119 -78q-5 -3 -8 -3q-15 0 -15 17v286q0 17 15 17q6 0 8 -2l119 -78v63q0 17 15 17q5 0 8 -3l187 -122v113q0 12 12 12h8z" />
    <glyph glyph-name="uniF224" unicode="&#xf224;" horiz-adv-x="352" 
d="M272 240h-192v-60v-89h24h16v-15v-52q0 -8 8 -8t8 8v52v15h17h49h15v-15v-52q0 -3 3 -6h1q2 -2 4 -2h1v0q7 0 7 8v52v15h17h22v89v60zM288 256v-76v-90q0 -15 -10 -15h-29v-51q0 -10 -6.5 -17t-16.5 -7h-1q-8 0 -15 5q-9 7 -9 19v51h-49v-51q0 -10 -7 -17t-17 -7t-17 7
t-7 17v51h-28q-12 0 -12 15v90v76h224zM328 256q-8 0 -8 -8v-96q0 -8 8 -8t8 8v96q0 8 -8 8zM328 272q10 0 17 -7t7 -17v-96q0 -10 -7 -17t-17 -7t-17 7t-7 17v96q0 10 7 17t17 7zM24 256q-8 0 -8 -8v-96q0 -8 8 -8t8 8v96q0 8 -8 8zM24 272q10 0 17 -7t7 -17v-96
q0 -10 -7 -17t-17 -7t-17 7t-7 17v96q0 10 7 17t17 7zM175 354q-16 0 -38 -6l-10 -4q-35 -15 -44 -56h186q-9 40 -44 56l-10 4q-18 6 -39 6v0h-1zM105 384h1l19 -23q23 9 50 9h1q25 0 50 -9l20 23q1 -1 2 -1l2 -3l-19 -22q22 -10 35.5 -29t17 -32t4.5 -25h-224q1 8 3 17.5
t7.5 23.5t17.5 26.5t29 19.5l-19 22l2 2zM127 309q-5 0 -9.5 4t-4.5 9t4 9.5t10 4.5q5 0 9 -4.5t4 -9.5q0 -13 -13 -13zM225 309q-13 0 -13 13q0 14 13 14q5 0 9 -4.5t4 -9.5q0 -13 -13 -13z" />
    <glyph glyph-name="uniF225" unicode="&#xf225;" horiz-adv-x="352" 
d="M64 180v76h224v-76v-90q0 -14 -11 -14h-28v-52q0 -10 -7 -17t-17 -7h-1q-7 0 -14 5q-9 7 -9 19v52h-49v-52q0 -10 -7 -17t-17 -7t-17 7t-7 17v52h-29q-11 0 -11 14v90zM328 272q10 0 17 -7t7 -17v-96q0 -10 -7 -17t-17 -7t-17 7t-7 17v96q0 10 7 17t17 7zM24 272
q10 0 17 -7t7 -17v-96q0 -10 -7 -17t-17 -7t-17 7t-7 17v96q0 10 7 17t17 7zM231 359q22 -10 35.5 -29.5t17 -32.5t4.5 -25h-224q4 64 56 87l-18 22q0 1 1 2l3 1l19 -23q25 9 51 9q25 0 50 -9l20 23q1 0 2 -1l2 -2zM127 309q13 0 13 13q0 5 -4 9.5t-9 4.5q-6 0 -10 -4.5
t-4 -9.5t4.5 -9t9.5 -4zM225 309q5 0 9.5 4t4.5 9t-4.5 9.5t-9.5 4.5q-13 0 -13 -14q0 -13 13 -13z" />
    <glyph glyph-name="uniF226" unicode="&#xf226;" horiz-adv-x="320" 
d="M238 278q-15 0 -37 -8q-20 -8 -35 -8q-13 0 -37 8q-22 8 -34 8q-18 0 -34 -10q-19 -11 -31 -31q-18 -27 -13 -77q4 -51 35 -99q28 -45 50 -45h1q6 0 20 6q20 10 44 10t44 -10q14 -6 19 -6q22 0 52 48q9 14 17 31q-19 11 -30 28q-17 25 -18 52q-2 30 10 53q9 18 24 30
q-22 20 -47 20zM238 294q41 0 71 -39q-30 -17 -39 -49t5 -62t45 -42q-11 -26 -24 -46q-36 -56 -65 -56h-1q-11 0 -28.5 8t-34.5 8q-18 0 -35.5 -8t-28.5 -8h-1q-30 0 -64 53q-32 50 -37 106t16 87q30 48 78 48q15 0 37.5 -8t33.5 -8q10 0 32 8t40 8zM214 364q-17 -8 -28 -22
q-8 -10 -13 -23q-2 -6 -2 -9q18 6 28 21q11 14 15 33zM230 384q4 -32 -18 -62q-23 -30 -56 -30h-1q-5 29 18 60q25 30 57 32z" />
    <glyph glyph-name="uniF227" unicode="&#xf227;" horiz-adv-x="320" 
d="M238 294q41 0 71 -39q-30 -17 -39 -49t5 -62t45 -42q-11 -26 -24 -46q-36 -56 -65 -56h-1q-11 0 -28.5 8t-34.5 8q-18 0 -35.5 -8t-28.5 -8h-1q-30 0 -64 53q-32 50 -37 106t16 87q30 48 78 48q15 0 37.5 -8t33.5 -8q10 0 32 8t40 8zM230 384q4 -32 -18 -62
q-23 -30 -56 -30h-1q-5 29 18 60q25 30 57 32z" />
    <glyph glyph-name="uniF228" unicode="&#xf228;" horiz-adv-x="384" 
d="M7 284q-7 3 -7 7.5t7 7.5l169 82q6 3 16 3t16 -3l169 -82q7 -3 7 -7.5t-7 -7.5l-169 -82q-6 -3 -16 -3t-16 3zM183 366l-156 -75l156 -75q2 -1 9 -1t9 1l156 75l-156 75q-4 2 -9 2t-9 -2zM377 200q7 -3 7 -8t-7 -8l-169 -81q-8 -4 -16 -4t-16 4l-169 81q-7 3 -7 8t7 8
l33 16q6 4 13 0l123 -60q6 -3 16 -3t16 3l125 61q5 2 9 0zM201 117l156 75l-19 9l-123 -59q-10 -5 -23 -5t-23 5l-123 59l-19 -9l156 -75q4 -2 9 -2t9 2zM377 100q7 -3 7 -7.5t-7 -7.5l-169 -82q-6 -3 -16 -3t-16 3l-169 82q-7 3 -7 7.5t7 7.5l33 17q5 3 13 -1l123 -59
q6 -3 16 -3t16 3l125 60q5 2 9 0zM201 18l156 75l-19 9l-123 -60q-8 -4 -23 -4t-23 4l-123 60l-19 -9l156 -75q4 -2 9 -2t9 2z" />
    <glyph glyph-name="uniF229" unicode="&#xf229;" horiz-adv-x="384" 
d="M7 284q-7 3 -7 7.5t7 7.5l169 82q6 3 16 3t16 -3l169 -82q7 -3 7 -7.5t-7 -7.5l-169 -82q-6 -3 -16 -3t-16 3zM377 200q7 -3 7 -8t-7 -8l-169 -81q-8 -4 -16 -4t-16 4l-169 81q-7 3 -7 8t7 8l33 16q6 4 13 0l123 -60q6 -3 16 -3t16 3l125 61q5 2 9 0zM377 100
q7 -3 7 -7.5t-7 -7.5l-169 -82q-6 -3 -16 -3t-16 3l-169 82q-7 3 -7 7.5t7 7.5l33 17q5 3 13 -1l123 -59q6 -3 16 -3t16 3l125 60q5 2 9 0z" />
    <glyph glyph-name="uniF22A" unicode="&#xf22a;" 
d="M259 302v-53l-65 103zM0 188zM297 352l151 -119v-201h-248l-200 156h63q35 0 56 22.5t21 59.5q0 30 -15 51l-3 3l37 -29v-107h41l-2 98l63 -98h36v84v80zM432 48v178l-119 92v1v-47v-83v-17h-15h-37h-9l-4 8l-33 50l1 -42v-16h-16h-41h-16v16v29q-5 -10 -12 -17
q-12 -14 -30 -21q-17 -7 -38 -7h-16l159 -124h226zM59 298h-1h-3v-57h4q11 0 17 6q6 7 6 22q0 29 -23 29zM59 314q39 0 39 -45q0 -44 -40 -44h-19v89h20z" />
    <glyph glyph-name="uniF22B" unicode="&#xf22b;" 
d="M258 303l1 -53l-64 102zM297 352l151 -118v-202h-248l-200 157h63q35 0 56 22.5t21 59.5q0 30 -15 51l-3 3l37 -29v-107h40l-2 99l64 -99h36v83v80zM98 270q0 -44 -40 -44h-19v89h19q40 0 40 -45z" />
    <glyph glyph-name="uniF22C" unicode="&#xf22c;" horiz-adv-x="384" 
d="M192 384q80 0 136 -56t56 -136t-56 -136t-136 -56t-136 56t-56 136t56 136t136 56zM314 296q-25 -37 -85 -64q6 -13 13 -31q56 5 110 2q-3 53 -38 93zM192 352q-17 0 -39 -5q30 -30 62 -87q54 22 79 55q-45 37 -102 37zM120 334q-64 -33 -83 -103h25q65 0 121 17
q-29 52 -63 86zM32 200v-8q0 -61 40 -106q38 71 122 106q5 2 14 4q-6 16 -10 24q-60 -19 -138 -21q-4 0 -14 0.5t-14 0.5zM192 32q31 0 57 10q-5 42 -15 79q-4 17 -16 49q-12 -3 -17 -6q-75 -34 -107 -98q44 -34 98 -34zM278 58q66 43 73 116q-59 4 -99 0q11 -31 12 -38
q9 -35 14 -78z" />
    <glyph glyph-name="uniF22D" unicode="&#xf22d;" horiz-adv-x="384" 
d="M192 384q80 0 136 -56t56 -136t-56 -136t-136 -56t-136 56t-56 136t56 136t136 56zM192 32q66 0 113 47t47 113t-47 113t-113 47t-113 -47t-47 -113t47 -113t113 -47zM242 201q-7 18 -13 31q40 18 63 39q25 -32 28 -67q-44 0 -78 -3zM271 292q-23 -19 -56 -32
q-19 34 -38 59q5 1 15 1q43 0 79 -28zM142 310q19 -22 41 -62q-53 -16 -113 -17q17 56 72 79zM319 176q-6 -51 -46 -83q0 2 -3.5 18l-5.5 25q-1 7 -12 38q36 3 67 2zM194 192q-64 -27 -104 -78q-26 36 -26 78v7q76 2 134 21q4 -8 10 -24q-9 -2 -14 -4zM219 170q9 -25 15 -49
q3 -12 10 -46q-25 -11 -52 -11q-46 0 -81 29q33 45 90 71q4 2 18 6z" />
    <glyph glyph-name="uniF22E" unicode="&#xf22e;" horiz-adv-x="384" 
d="M113 371l79 -66l-114 -71l-78 63zM27 295l52 -42l86 53l-53 46zM306 235l78 -63l-78 -51v-39l-114 -69l-114 68v39l-78 52l78 63l114 -71l-79 -66l-19 12v-20l98 -59l98 59v20l-19 -12l-79 66zM79 217l-52 -44l85 -55l53 44zM219 162l53 -44l85 56l-52 43zM384 297
l-78 -63l-114 71l79 66zM219 305l86 -52l52 42l-85 56z" />
    <glyph glyph-name="uniF22F" unicode="&#xf22f;" horiz-adv-x="384" 
d="M113 371l79 -66l-114 -71l-78 63zM0 172l78 62l114 -70l-79 -66zM192 164l114 70l78 -62l-113 -74zM384 297l-78 -63l-114 71l79 66zM192 150l80 -66l34 22v-25l-114 -68l-114 68v25l34 -22z" />
    <glyph glyph-name="uniF230" unicode="&#xf230;" horiz-adv-x="192" 
d="M128 256h64l-8 -64h-56v-192h-83v192h-45v64h45v43q0 42 21 63.5t70 21.5h56v-64h-34q-19 0 -24.5 -6t-5.5 -20v-38zM170 208l4 32h-45h-17v17v37q0 20 9 30q11 12 37 12h18v32h-40q-44 0 -60 -18q-15 -16 -15 -51v-43v-16h-15h-30v-32h30h15v-16v-176h51v176v16h17h41z
" />
    <glyph glyph-name="uniF231" unicode="&#xf231;" horiz-adv-x="192" 
d="M128 256h64l-8 -64h-56v-192h-83v192h-45v64h45v43q0 42 21 63.5t70 21.5h56v-64h-34q-19 0 -24.5 -6t-5.5 -20v-38z" />
    <glyph glyph-name="uniF232" unicode="&#xf232;" 
d="M224 416q93 0 158.5 -67.5t65.5 -162.5q0 -75 -43 -135t-110 -83h-4q-12 0 -12 12q0 1 0.5 22.5t0.5 39.5q0 29 -16 43q46 6 74.5 29.5t28.5 83.5q0 36 -23 62q10 29 -2 61h-5q-23 0 -57 -24q-29 8 -56 8t-56 -8q-34 24 -57 24h-5q-12 -32 -2 -61q-23 -26 -23 -62
q0 -60 28 -83.5t74 -29.5q-11 -11 -14 -31q-12 -6 -26 -6q-25 0 -39 25q-13 22 -35 24q-21 0 -1 -14q15 -8 25 -34q1 -4 4 -9.5t16.5 -14.5t32.5 -9q14 0 22 2v-39q0 -11 -11 -11h-4q-68 23 -110.5 82.5t-42.5 135.5q0 95 65.5 162.5t158.5 67.5zM146 0q-20 0 -38 9
q19 -14 44 -23v6v8h-6zM157 73q-33 8 -52 24q11 -11 13 -16q10 -17 25 -17q6 0 12 2q1 1 1 3.5t1 3.5zM347 14q26 20 45 46q40 57 40 126q0 46 -16 84q-14 36 -45 68q-26 27 -66 45q-40 17 -81 17t-81 -17q-40 -18 -66 -45q-32 -33 -45 -68q-16 -38 -16 -84q0 -69 40 -126
q15 -21 35 -38q-9 10 -13 22q-8 20 -17 25h-2v1q-20 12 -15 28q5 15 25 15h1v0q19 -1 32 -13q-37 33 -37 98q0 38 21 66q-7 31 5 62l3 8l7 2q1 0 4 0.5t6 0.5q26 0 60 -22q26 6 53 6v0q27 0 53 -6q34 22 60 22q3 0 6 -0.5t4 -0.5l7 -2l3 -7q12 -31 5 -63q21 -28 21 -66
q0 -105 -92 -125q5 -13 5 -30v-51v-6q28 11 51 28z" />
    <glyph glyph-name="uniF233" unicode="&#xf233;" 
d="M224 416q93 0 158.5 -67.5t65.5 -162.5q0 -75 -43 -135t-110 -83h-4q-12 0 -12 12q0 1 0.5 22.5t0.5 39.5q0 29 -16 43q46 6 74.5 29.5t28.5 83.5q0 36 -23 62q10 29 -2 61h-5q-23 0 -57 -24q-29 8 -56 8t-56 -8q-34 24 -57 24h-5q-12 -32 -2 -61q-23 -26 -23 -62
q0 -60 28 -83.5t74 -29.5q-11 -11 -14 -31q-12 -6 -26 -6q-25 0 -39 25q-13 22 -35 24q-21 0 -1 -14q15 -8 25 -34q1 -4 4 -9.5t16.5 -14.5t32.5 -9q14 0 22 2v-39q0 -11 -11 -11h-4q-68 23 -110.5 82.5t-42.5 135.5q0 95 65.5 162.5t158.5 67.5z" />
    <glyph glyph-name="uniF234" unicode="&#xf234;" 
d="M192 366q36 -30 36 -68q0 -39 -43 -72q-15 -15 -15 -24q0 -13 14 -22l18 -14q15 -12 22 -19.5t14 -21.5t7 -30q0 -38 -36.5 -66.5t-98.5 -28.5q-53 0 -81.5 21t-28.5 51q0 38 40 62q29 17 98 23q-16 21 -16 34q0 5 5 20q-3 0 -8.5 -0.5t-7.5 -0.5q-39 0 -62 24t-23 55
q0 39 32 67q34 28 92 28h106l-33 -18h-31zM155 142q-2 0 -5.5 0.5t-6.5 0.5q-29 0 -54 -8q-44 -16 -44 -52q0 -27 25 -44.5t66 -17.5q36 0 55.5 15.5t19.5 39.5q0 18 -11.5 30.5t-44.5 35.5zM170 238q13 13 13 37q0 32 -17.5 62t-47.5 30q-23 0 -36 -16q-11 -13 -11 -37
q0 -31 17 -60.5t47 -29.5q21 0 35 14v0zM448 306v-18h-78v-81h-18v81h-80v18h80v78h18v-78h78z" />
    <glyph glyph-name="uniF235" unicode="&#xf235;" 
d="M210 172q15 -12 22.5 -19t15 -22t7.5 -32q0 -40 -37 -69.5t-102 -29.5q-56 0 -86 23t-30 54q0 40 42 65q31 19 85 23q-8 14 -8 26q0 7 1 10h-4q-42 0 -67 26q-24 24 -24 57q0 42 35 71q37 29 94 29h134l-60 -33h-13q23 -27 23 -58q0 -19 -8 -34.5t-15.5 -22.5t-21.5 -17
v-1q-11 -11 -11 -17q0 -7 10 -15zM85 308q0 -26 14 -51q16 -27 41 -27q17 0 28 11q10 10 10 30q0 26 -15 53q-17 28 -40 28q-19 0 -29 -13q-9 -11 -9 -31zM206 80q0 14 -10 25t-40 31q-1 0 -3.5 0.5t-4.5 0.5q-25 0 -50 -8q-38 -14 -38 -42q0 -23 22 -37t58 -14
q31 0 48.5 12t17.5 32zM370 306h78v-34h-78v-81h-34v81h-80v34h80v78h34v-78z" />
    <glyph glyph-name="uniF236" unicode="&#xf236;" horiz-adv-x="384" 
d="M352 352h-320v-320h320v320zM384 384v-384h-384v384h384zM233 289h45l-64 -120v-72h-40v72l-66 120h47l40 -84z" />
    <glyph glyph-name="uniF237" unicode="&#xf237;" horiz-adv-x="384" 
d="M0 384h384v-384h-384v384zM214 169l64 120h-45l-38 -84l-40 84h-47l66 -120v-72h40v72z" />
    <glyph glyph-name="uniF238" unicode="&#xf238;" horiz-adv-x="384" 
d="M119 64h-55v171h55v-171zM93 261v0q-13 0 -21 8.5t-8 20.5q0 13 8.5 21.5t21.5 8.5t21 -8.5t8 -21.5q0 -12 -8.5 -20.5t-21.5 -8.5zM257 239q28 0 45.5 -19t17.5 -56v-100h-55v94q0 37 -28 37q-20 0 -28 -20q-2 -4 -2 -14v-97h-55v171h55v-24q20 28 50 28zM353 384
q13 0 22 -8.5t9 -21.5v-321q0 -13 -9 -23t-22 -10h-320q-13 0 -23 10t-10 23v321q0 13 9.5 21.5t23.5 8.5h320zM350 32q2 0 2 2v316q0 2 -2 2h-316q-2 0 -2 -2v-315q0 -3 3 -3h315z" />
    <glyph glyph-name="uniF239" unicode="&#xf239;" horiz-adv-x="384" 
d="M353 384q13 0 22 -8.5t9 -21.5v-321q0 -13 -9 -23t-22 -10h-320q-13 0 -23 10t-10 23v321q0 13 9.5 21.5t23.5 8.5h320zM119 64v171h-55v-171h55zM93 261q13 0 21.5 8.5t8.5 20.5q0 13 -8 21.5t-21 8.5t-21.5 -8.5t-8.5 -21.5q0 -12 8 -20.5t21 -8.5zM320 64v100
q0 37 -17.5 56t-45.5 19q-30 0 -50 -28v24h-55v-171h55v97q0 10 2 14q8 20 28 20q28 0 28 -37v-94h55z" />
    <glyph glyph-name="uniF23A" unicode="&#xf23a;" horiz-adv-x="449" 
d="M259 160q0 31 32 31t32 -31q0 -32 -32 -32t-32 32zM127 160q0 31 32 31t32 -31q0 -32 -32 -32t-32 32zM449 197q0 -31 -27 -45q1 -5 1 -14q0 -58 -58 -98t-140 -40q-83 0 -141 40t-58 97q0 10 1 15q-27 14 -27 45q0 20 15 35t35 15t33 -13q55 38 129 41h7l29 98l86 -17
q12 28 41 28q18 0 31 -13t13 -32t-13 -32t-31 -13q-19 0 -32 13t-13 31l-69 14l-24 -77q76 -3 129 -41q14 13 34 13q10 0 24 -7q12 -6 18 -18q7 -14 7 -25zM375 366q-5 0 -11 -2q-3 -1 -8 -6q-4 -4 -6 -9q-2 -6 -2 -10q0 -11 8 -19t19 -8q7 0 13 3q7 3 10 10q4 8 4 14
q0 11 -8 19t-19 8zM18 197q0 -16 14 -27q11 30 37 53q-9 6 -19 6q-7 0 -10 -1t-9 -5q-4 -3 -7 -7q-4 -6 -5 -9t-1 -10zM355 55q50 34 50 83v9q-1 6 -5 18q-9 25 -30 43q-2 1 -5 4t-5.5 5t-4.5 3q-53 37 -130 37q-78 0 -131 -37l-15 -12q-21 -18 -30 -43q-4 -12 -5 -18v-9
q0 -49 50 -83q53 -37 131 -37q77 0 130 37zM417 170q14 9 14 27q0 14 -9 23t-22 9q-11 0 -20 -6q26 -23 37 -53zM289 90l13 -12q-30 -30 -77 -30q-48 0 -78 30l13 12q24 -24 65 -24q40 0 64 24z" />
    <glyph glyph-name="uniF23B" unicode="&#xf23b;" horiz-adv-x="449" 
d="M449 197q0 -31 -27 -45q1 -5 1 -14q0 -57 -58.5 -97.5t-140.5 -40.5t-140 40t-58 97q0 10 1 15q-27 14 -27 45q0 21 15 35.5t35 14.5q18 0 33 -13q55 38 129 41h2l31 103l90 -18q14 24 39 24h1q19 0 31.5 -13t12.5 -32t-12.5 -32t-31.5 -13h-1q-17 0 -30 11.5t-14 28.5
l-67 14l-22 -74q76 -5 125 -40q15 13 34 13q20 0 34.5 -14.5t14.5 -35.5zM34 177q8 23 29 41q-7 5 -15 5q-10 0 -17.5 -7.5t-7.5 -17.5q0 -15 11 -21zM358 339q0 -7 4.5 -12t11.5 -5t12 5t5 12t-5 12t-12 5t-11.5 -5t-4.5 -12zM127 160q0 -14 9.5 -23t22.5 -9t22.5 9t9.5 23
q0 13 -9 22t-23 9t-23 -9t-9 -22zM224 48q48 0 78 30l-13 12q-25 -24 -65 -24q-18 0 -34 6t-23 12l-7 6l-13 -12q30 -30 77 -30zM291 128q13 0 22.5 9t9.5 23q0 13 -9 22t-23 9t-23 -9t-9 -22q0 -14 9.5 -23t22.5 -9zM415 176q11 8 11 22q0 10 -7 17.5t-18 7.5q-8 0 -15 -5
q21 -18 29 -42z" />
    <glyph glyph-name="uniF23C" unicode="&#xf23c;" horiz-adv-x="384" 
d="M56 112q23 0 39.5 -16.5t16.5 -39.5t-16.5 -39.5t-39.5 -16.5t-39.5 16.5t-16.5 39.5t16.5 39.5t39.5 16.5zM56 16q16 0 28 12t12 28t-12 28t-28 12t-28 -12t-12 -28t12 -28t28 -12zM0 256q105 0 180.5 -75.5t75.5 -180.5h-80q0 80 -48 128t-128 48v80zM240 16
q-3 41 -19 77q-18 42 -52 76t-76 52q-37 15 -77 18v-47q74 -4 123 -53t53 -123h48zM0 384q159 0 271.5 -112.5t112.5 -271.5h-80q0 128 -88 216t-216 88v80zM227 228q87 -87 93 -212h48q-6 143 -107.5 244.5t-244.5 107.5v-48q125 -6 211 -92z" />
    <glyph glyph-name="uniF23D" unicode="&#xf23d;" horiz-adv-x="384" 
d="M56 112q23 0 39.5 -16.5t16.5 -39.5t-16.5 -39.5t-39.5 -16.5t-39.5 16.5t-16.5 39.5t16.5 39.5t39.5 16.5zM0 256q105 0 180.5 -75.5t75.5 -180.5h-80q0 80 -48 128t-128 48v80zM0 384q159 0 271.5 -112.5t112.5 -271.5h-80q0 128 -88 216t-216 88v80z" />
    <glyph glyph-name="uniF23E" unicode="&#xf23e;" horiz-adv-x="384" 
d="M106 352q-31 0 -52.5 -21.5t-21.5 -51.5q0 -18 10 -36l6 -11l-2 -12q-3 -15 -3 -30q0 -61 44 -105t107 -44q14 0 28 3l11 2l9 -5q16 -9 36 -9q31 0 52.5 21.5t21.5 51.5q0 16 -8 32l-5 10l3 11q3 15 3 32q0 61 -44 105q-43 43 -107 43q-18 0 -26 -2l-12 -2l-10 7
q-19 11 -40 11zM106 384q30 0 56 -16q10 2 32 2q76 0 129.5 -52.5t53.5 -127.5q0 -23 -4 -39q11 -22 11 -46q0 -44 -31 -74.5t-75 -30.5q-28 0 -50 12q-16 -3 -34 -3q-76 0 -129.5 53t-53.5 128q0 12 4 36q-15 27 -15 53q0 44 31 74.5t75 30.5zM288 104q-11 -17 -37 -28
q-23 -10 -58 -10q-39 0 -65 14q-19 11 -30 26q-12 16 -12 33q0 9 8 17q7 7 19 7q10 0 16 -6t10 -15t11 -18q7 -8 15 -12q12 -5 27 -5q22 0 37 10q13 9 13 22q0 11 -7 17q-8 8 -19 11q-4 2 -34 8q-26 5 -48 14q-22 10 -32 23q-11 14 -11 36q0 20 12 36q13 16 36 25q20 8 54 8
q27 0 42 -5q20 -7 31 -15q12 -9 18 -20q5 -9 5 -21q0 -10 -7 -17q-8 -8 -19 -8q-9 0 -16 5q-7 7 -11 14q-9 14 -16 20q-10 8 -31 8q-18 0 -31 -8q-12 -8 -12 -18q0 -4 4 -10q6 -6 11 -8l5 -2.5t5.5 -2.5t4.5 -1q5 -1 25 -6q25 -5 40 -10q22 -7 32 -14q12 -8 20 -22t8 -32
q0 -20 -13 -40z" />
    <glyph glyph-name="uniF23F" unicode="&#xf23f;" horiz-adv-x="384" 
d="M373 151q11 -22 11 -46q0 -44 -31 -74.5t-75 -30.5q-28 0 -50 12q-16 -3 -34 -3q-76 0 -129.5 53t-53.5 128q0 12 4 36q-15 27 -15 53q0 44 31 74.5t75 30.5q31 0 57 -16q10 2 31 2q76 0 129.5 -52.5t53.5 -127.5q0 -23 -4 -39zM288 104q12 16 12 40q0 19 -7 32t-21 22
q-11 7 -31 14q-14 4 -41 10q-20 5 -25 6l-15 6q-3 1 -10 8q-4 6 -4 10q0 11 11 18t32 7q23 0 31 -7q7 -6 16 -20q4 -7 11 -14q7 -5 16 -5q10 0 18 8t8 17q0 10 -6 21q-7 11 -18 20q-12 9 -30 15q-15 5 -43 5q-33 0 -53 -8q-23 -9 -36 -25q-12 -16 -12 -36q0 -22 11 -36
q10 -13 32 -23q22 -9 48 -14q30 -6 34 -8q11 -3 19 -11q7 -6 7 -17q0 -14 -13 -23t-37 -9q-15 0 -27 5q-9 4 -15 11q-6 8 -11 19q-4 9 -10 15t-16 6q-12 0 -19 -7q-8 -8 -8 -17q0 -17 12 -33q11 -15 30 -26q26 -14 65 -14q35 0 58 10q26 11 37 28z" />
    <glyph glyph-name="uniF240" unicode="&#xf240;" horiz-adv-x="256" 
d="M193 52q33 0 63 20v-65q-34 -15 -48 -18q-23 -5 -45 -5q-29 0 -50 7q-24 9 -38 21q-15 14 -21 28q-6 15 -6 44v140h-48v58q21 7 42 24q15 12 26 35q8 16 14 59h62v-112h96v-64h-96v-101q0 -38 4 -47q3 -10 14 -16q12 -8 31 -8zM240 17v29q-25 -10 -47 -10q-23 0 -40 10
q-14 9 -21 25q-4 12 -4 52v117h96v32h-96v112h-32q-4 -29 -14 -50q-13 -25 -30 -40q-18 -15 -36 -23v-31h48v-156q0 -26 4 -38q3 -9 18 -22q14 -12 31 -18q19 -6 46 -6q19 0 41 5q16 3 36 12z" />
    <glyph glyph-name="uniF241" unicode="&#xf241;" horiz-adv-x="256" 
d="M193 52q33 0 63 20v-65q-34 -15 -48 -18q-23 -5 -45 -5q-29 0 -50 7q-24 9 -38 21q-15 14 -21 28q-6 15 -6 44v140h-48v58q21 7 42 24q15 12 26 35q8 16 14 59h62v-112h96v-64h-96v-101q0 -38 4 -47q3 -10 14 -16q12 -8 31 -8z" />
    <glyph glyph-name="uniF242" unicode="&#xf242;" horiz-adv-x="472" 
d="M472 338q-18 -28 -48 -50v-12q0 -105 -75.5 -190.5t-200.5 -85.5q-80 0 -148 44q16 -2 23 -2q67 0 120 42q-31 1 -56 19.5t-34 47.5q12 -2 18 -2q10 0 26 4q-33 7 -55.5 33.5t-22.5 61.5v1q22 -12 44 -12q-43 28 -43 81q0 25 13 48q77 -95 199 -101q-2 7 -2 22
q0 41 28 69t69 28t70 -31q30 5 62 24q-10 -35 -43 -54q31 3 56 15zM414 301q1 1 5.5 4t5.5 4l-4 -1h-7h-8l-21 5q14 13 18 17l11 11q-2 -1 -7 -2t-7 -1l-8 -2l-6 6q-24 26 -59 26q-34 0 -57.5 -24t-23.5 -57q0 -6 2 -18l5 -21l-22 1q-61 3 -118 32q-38 19 -75 56
q-2 -12 -2 -19q0 -43 36 -68q33 -23 46 -29h-56q-12 0 -24 3q6 -21 23 -36.5t39 -19.5l61 -10l-61 -21q-10 -3 -21 -3q25 -34 64 -34l45 -1l-35 -28q-27 -21 -60 -33q-22 -7 -29 -8q42 -14 84 -14q61 0 112 24q46 21 81 60q30 33 50 84q17 46 17 92v12l-1 8z" />
    <glyph glyph-name="uniF243" unicode="&#xf243;" horiz-adv-x="472" 
d="M472 338q-18 -28 -48 -50v-12q0 -105 -75.5 -190.5t-200.5 -85.5q-80 0 -148 44q16 -2 23 -2q67 0 120 42q-31 1 -56 19.5t-34 47.5q12 -2 18 -2q10 0 26 4q-33 7 -55.5 33.5t-22.5 61.5v1q22 -12 44 -12q-43 28 -43 81q0 25 13 48q77 -95 199 -101q-2 7 -2 22
q0 41 28 69t69 28t70 -31q30 5 62 24q-10 -35 -43 -54q31 3 56 15z" />
    <glyph glyph-name="uniF244" unicode="&#xf244;" 
d="M445 334q10 -46 -13 -97q-19 -42 -51 -87q-50 -69 -85 -101q-34 -33 -66 -44q-12 -5 -27 -5q-25 0 -44 27q-18 24 -28 63l-38 134q-5 14 -15 33q-3 5 -12 14q-3 3 -8 3q-4 0 -9 -3l-28 -18l-21 27l82 71q30 25 48 27h8q27 0 42 -22q12 -19 18 -57q17 -97 24 -122
q5 -16 12 -29q6 -10 14 -10q4 0 11 5q6 4 10 10q32 38 48 81q3 9 3 27q0 10 -7 17.5t-18 8.5h-7q-15 0 -32 -7q14 54 54 84q29 20 67 20q13 0 27 -4q34 -12 41 -46zM418 244q20 46 11 87q-5 25 -30 34q-9 3 -22 3q-34 0 -57 -17q-22 -17 -38 -48h6h8q17 -1 28 -12.5
t12 -28.5q0 -22 -4 -34q-16 -42 -51 -85q-1 -1 -5 -6t-7 -7q-9 -8 -22 -8q-16 0 -27 18q-8 13 -14 32q-7 23 -19 95q-1 5 -2.5 14.5t-2.5 14.5q-6 37 -16 51q-11 15 -28 15h-6q-13 -2 -40 -23q-1 -1 -12.5 -11l-28.5 -25l-29 -25l2 -3l8.5 5.5t7.5 4.5q10 5 18 5q9 0 18 -7
q12 -11 16 -18q11 -19 16 -37q26 -88 38 -133q10 -36 26 -59q14 -20 31 -20q10 0 21 4q24 8 61 41q33 30 83 99q31 41 50 84z" />
    <glyph glyph-name="uniF245" unicode="&#xf245;" 
d="M445 334q10 -46 -13 -97q-19 -42 -51 -87q-50 -69 -85 -101q-34 -33 -66 -44q-44 -16 -71 22q-18 24 -28 63l-38 134q-5 14 -15 33q-3 5 -12 14q-7 5 -17 0l-28 -18l-21 27l82 71q30 25 48 27q32 5 50 -22q12 -19 18 -57q18 -105 23 -122q4 -12 13 -29q11 -17 25 -5
q6 4 10 10q32 38 48 81q3 9 3 27q0 10 -7 17.5t-18 8.5q-18 1 -39 -7q14 54 54 84q21 15 49.5 19t44.5 -3q34 -12 41 -46z" />
    <glyph glyph-name="uniF246" unicode="&#xf246;" 
d="M432 167h-216v-149l216 -32v181zM448 183v-215l-248 36v179h248zM168 167h-152v-120l152 -22v142zM184 183v-177l-184 27v150h184zM432 398l-216 -31v-152h216v183zM448 416v-217h-248v182zM168 360l-152 -22v-123h152v145zM184 378v-179h-184v153z" />
    <glyph glyph-name="uniF247" unicode="&#xf247;" 
d="M448 183v-215l-248 36v179h248zM184 183v-177l-184 27v150h184zM448 416v-217h-248v182zM184 378v-179h-184v153z" />
    <glyph glyph-name="uniF248" unicode="&#xf248;" horiz-adv-x="384" 
d="M192 384q80 0 136 -56t56 -136q0 -10 -2 -26q-9 -64 -55 -110t-110 -54q-16 -2 -25 -2q-80 0 -136 56t-56 136t56 136t136 56zM19 192q0 -50 27 -92t71 -63l-83 225q-15 -32 -15 -70zM214 21q24 4 35 8q0 1 -1 3l-53 145l-33 -96l-19 -55q21 -7 49 -7q8 0 22 2zM216 273
l62 -186l17 58q13 32 13 56q0 23 -14 47q-17 26 -17 41q0 12 8.5 21t20.5 9h2q-50 45 -116 45q-93 0 -144 -77q2 0 6 -0.5t5 -0.5l46 3q4 0 6 -3.5t0.5 -7.5t-5.5 -4q-10 -1 -20 -1l63 -187l38 113l-27 74l-18 1q-4 0 -5.5 4t0.5 7.5t6 3.5q28 -3 45 -3l46 3q4 0 6.5 -3.5
t1 -7.5t-5.5 -4q-10 -1 -20 -1zM279 43q73 42 84 125q2 16 2 24q0 44 -22 83q1 -6 1 -18q0 -29 -13 -62l-39 -113z" />
    <glyph glyph-name="uniF249" unicode="&#xf249;" horiz-adv-x="384" 
d="M195 177l53 -146q0 -1 9 -19q-1 0 -4 -1t-4 -2q-20 -6 -32 -7q-16 -2 -25 -2q-26 0 -50 6q-1 0 -2.5 1t-2.5 1l25 73zM17 268q3 0 7 -0.5t8 -0.5l93 -255q-1 0 -3.5 1t-4.5 2q-48 20 -79.5 62.5t-36.5 95.5q-1 6 -1 19q0 37 17 76zM366 273q18 -39 18 -81q0 -10 -2 -26
q-7 -48 -35.5 -87.5t-71.5 -59.5q-1 -1 -2.5 -1t-2.5 -1l22 65l39 113q13 33 13 62v19q-1 17 -9.5 30.5t-26.5 12.5h-2q-12 0 -20.5 -9t-8.5 -21q0 -15 17 -41q14 -24 14 -47q0 -24 -13 -56l-17 -58l-62 186l20 1q4 0 5.5 4t-1 7.5t-6.5 3.5q-28 -3 -46 -3l-45 3
q-4 0 -6 -3.5t-0.5 -7.5t5.5 -4q9 -1 18 -1l27 -74l-38 -113l-63 187l20 2q4 0 5.5 4t-0.5 7t-6 3q-28 -2 -46 -2h-34q5 9 17 25q57 72 150 72q35 0 69 -13q50 -19 85 -65q1 -1 2.5 -3.5t2.5 -3.5q8 -11 15 -26z" />
    <glyph glyph-name="uniF24A" unicode="&#xf24a;" horiz-adv-x="320" 
d="M289 380q18 0 31 4l-128 -213v-171q-10 4 -32 4t-32 -4v171l-128 213q10 -4 32 -4t32 4l96 -160l96 160q10 -4 33 -4zM178 180l111 184h-1q-15 0 -24 2l-90 -150l-14 -23l-14 23l-89 150q-9 -2 -25 -2h-1l111 -184l2 -4v-5v-151h16h16v151v5z" />
    <glyph glyph-name="uniF24B" unicode="&#xf24b;" horiz-adv-x="320" 
d="M289 380q18 0 31 4l-128 -213v-171q-10 4 -32 4t-32 -4v171l-128 213q10 -4 32 -4t32 4l96 -160l96 160q10 -4 33 -4z" />
    <glyph glyph-name="uniF24C" unicode="&#xf24c;" horiz-adv-x="512" 
d="M265 352h-9h-9q-68 0 -168 -4h-1h-1q-17 0 -29.5 -14.5t-12.5 -34.5v-1v-1q-3 -51 -3 -105v0q0 -53 3 -104v-2v-1q0 -20 14 -36q12 -13 28 -13h1h1q104 -4 166 -4h11v0h11q60 0 166 4h1h1q16 0 28 13q14 16 14 36v1v2q3 51 3 104v0q0 54 -3 105v1v2q0 20 -12.5 34.5
t-29.5 14.5h-1h-1q-73 3 -168 3zM265 384q115 0 170 -3q31 0 52.5 -23.5t21.5 -57.5q3 -54 3 -108q0 -53 -3 -107q0 -34 -21.5 -57.5t-52.5 -23.5q-73 -4 -168 -4h-11h-11q-95 0 -168 4q-31 0 -52.5 23.5t-21.5 57.5q-3 54 -3 107q0 35 4 107q0 34 21 58t52 24q83 3 170 3h9
h9zM207 94v197l145 -99z" />
    <glyph glyph-name="uniF24D" unicode="&#xf24d;" horiz-adv-x="512" 
d="M509 299q3 -54 3 -107t-3 -107q0 -34 -21.5 -57.5t-52.5 -23.5q-77 -4 -179 -4t-179 4q-31 0 -52.5 23.5t-21.5 57.5q-3 54 -3 107q0 35 4 107q0 34 21 57.5t52 23.5q73 4 170 4h9h9q97 0 170 -4q31 0 52.5 -23.5t21.5 -57.5zM207 94l145 98l-145 99v-197z" />
    <glyph glyph-name="uniF24E" unicode="&#xf24e;" 
d="M448 248l-139 -104l55 -176l-140 112l-140 -112l55 176l-139 104h172l52 168l53 -168h171z" />
    <glyph glyph-name="uniF24F" unicode="&#xf24f;" horiz-adv-x="384" 
d="M373 384q11 0 11 -11v-362q0 -11 -11 -11h-362q-11 0 -11 11v362q0 11 11 11h362z" />
    <glyph glyph-name="uniF250" unicode="&#xf250;" horiz-adv-x="384" 
d="M24 195q-18 9 -18 29q0 22 20 30q-6 8 -6 19q0 22 20 30q-5 8 -5 17q0 13 8 19t27 11q53 13 126 9q10 0 37.5 -3.5t38.5 -3.5v32h112v-240h-112v16q-29 -2 -40 -14q-40 -42 -40 -108q0 -30 -4 -34q-10 -10 -28 3t-24 34q-3 12 -4 25t0 21.5t3 21.5t2 19h-103
q-14 0 -24 10t-10 24q0 26 24 33zM336 352q-16 0 -16 -16t16 -16t16 16t-16 16z" />
    <glyph glyph-name="uniF251" unicode="&#xf251;" horiz-adv-x="384" 
d="M360 189q18 -9 18 -29q0 -22 -20 -30q6 -8 6 -19q0 -22 -20 -30q5 -8 5 -17q0 -13 -8 -19t-27 -11q-53 -13 -126 -9q-10 0 -37.5 3.5t-38.5 3.5v-32h-112v240h112v-16q29 2 40 14q40 42 40 108q0 30 4 34q10 10 28 -3t24 -34q3 -12 4 -25t0 -21.5t-3 -21.5t-2 -19h103
q14 0 24 -10t10 -24q0 -26 -24 -33zM48 32q16 0 16 16t-16 16t-16 -16t16 -16z" />
    <glyph glyph-name="uniF252" unicode="&#xf252;" horiz-adv-x="352" 
d="M261 320h91v-32h-9q-5 -1 -8 -4l-4 -9l-19 -241q-1 -13 -1.5 -18t-4.5 -9.5t-10.5 -5.5t-19.5 -1h-200q-13 0 -19.5 1t-10.5 5.5t-4.5 9.5t-1.5 18l-19 242q-1 6 -4 9l-8 3h-9v32h91v29q0 15 9.5 25t24.5 10h101q15 0 25 -10.5t10 -24.5v-29zM112 349v-29h128v29
q0 15 -19 15h-91q-18 0 -18 -15zM104 64h20l-10 192h-21zM187 64v192h-22v-192h22zM249 64l10 192h-20l-11 -192h21z" />
    <glyph glyph-name="uniF253" unicode="&#xf253;" horiz-adv-x="320" 
d="M318 315q-4 -11 -7 -11h-302q-8 0 -8.5 1t1.5 10l4 13q3 8 19 11l53 7q7 1 10 7l4.5 11t3.5 9t3 6t4 4t5 1h103q3 0 5 -1t4 -4.5l3.5 -6t4 -9t4.5 -10.5q3 -6 10 -7l53 -6q16 -3 19 -11q2 -5 4 -14zM283 272q12 0 15 -2.5t2 -12.5l-19 -242q-1 -7 -2 -9.5t-4.5 -4
t-10.5 -1.5h-208q-11 0 -13 2.5t-4 12.5l-19 242q-1 9 2 12t15 3h246z" />
    <glyph glyph-name="uniF254" unicode="&#xf254;" horiz-adv-x="384" 
d="M22 -32q-9 0 -15.5 6.5t-6.5 15.5v212q0 9 6.5 15.5t15.5 6.5h3h19v31q0 69 43 115t105 46v0q62 0 105 -46q29 -30 39 -82h-53q-8 30 -24 47v1q-27 29 -67 29v0q-40 0 -67 -29v-1q-28 -30 -28 -80v-31h265q9 0 15.5 -6.5t6.5 -15.5v-212q0 -9 -6.5 -15.5t-15.5 -6.5h-340
z" />
    <glyph glyph-name="uniF255" unicode="&#xf255;" 
d="M366 215q34 0 58 -24.5t24 -58.5q0 -35 -24 -59.5t-58 -24.5h-110v80h48l-80 84l-80 -84h48v-80h-102q-37 0 -63.5 27t-26.5 64q0 30 17 53.5t44 32.5q4 22 20.5 36.5t38.5 14.5q12 0 26 -7q14 30 42.5 48.5t62.5 18.5q48 0 81.5 -34.5t33.5 -83.5v-3z" />
    <glyph glyph-name="uniF256" unicode="&#xf256;" 
d="M335 263v-66l113 35v-89v-88l-113 35v-65q0 -9 -9 -9h-317q-9 0 -9 9v12v55v171q0 9 9 9h208v38q0 3 -3.5 6.5t-6.5 3.5h-176v48h178q27 0 46 -19t19 -45v-32h52q9 0 9 -9zM226 107q15 0 25.5 10.5t10.5 25.5t-10.5 25t-25.5 10t-25.5 -10t-10.5 -25t11 -26h-68
q11 11 11 26t-10.5 25.5t-25.5 10.5t-25.5 -10.5t-10.5 -25.5t10.5 -25.5t25.5 -10.5h12h95h11z" />
    <glyph glyph-name="uniF257" unicode="&#xf257;" 
d="M199 40l-95 88h-104v128h104l95 88v-304zM255 92l-20 16q27 38 27 84t-27 84l20 16q33 -46 33 -100t-33 -100zM322 46l-21 16q43 57 43 130t-43 130l21 16q48 -66 48 -146t-48 -146zM365 369l20 15q63 -87 63 -192t-63 -192l-20 15q58 79 58 177t-58 177z" />
    <glyph glyph-name="uniF258" unicode="&#xf258;" horiz-adv-x="288" 
d="M199 40l-95 88h-104v128h104l95 88v-304zM255 92l-20 16q28 40 28 84t-28 84l20 16q33 -46 33 -100t-33 -100z" />
    <glyph glyph-name="uniF259" unicode="&#xf259;" horiz-adv-x="370" 
d="M199 40l-95 88h-104v128h104l95 88v-304zM255 92l-20 16q28 40 28 84t-28 84l20 16q33 -46 33 -100t-33 -100zM322 46l-21 16q43 57 43 130t-43 130l21 16q48 -66 48 -146t-48 -146z" />
    <glyph glyph-name="uniF25A" unicode="&#xf25a;" 
d="M224 231l47 51v-180l-47 51h-65v78h65zM332 388q53 -29 84.5 -81.5t31.5 -114.5q0 -93 -65.5 -158.5t-158.5 -65.5q-57 0 -108 27l-1 1q-52 29 -83.5 81.5t-31.5 114.5q0 93 65.5 158.5t158.5 65.5q57 0 107 -28h1zM362 93q33 46 33 99q0 49 -25.5 89.5t-66.5 61.5
q-14 7 -17 8q-30 11 -62 11q-54 0 -99 -32l73 -74h-76l-36 35q-32 -45 -32 -99q0 -48 24.5 -88t65.5 -62q16 -8 19 -9q30 -11 61 -11q55 0 100 32l-20 20v77z" />
    <glyph glyph-name="uniF25B" unicode="&#xf25b;" horiz-adv-x="320" 
d="M175 409q20 -21 40 -46t46.5 -64t42.5 -86t16 -92q0 -64 -47 -108.5t-113 -44.5q-42 0 -77.5 18.5t-56.5 50.5q-8 13 -15 29q-11 27 -11 55v4q1 84 64 183q20 31 59 77q18 20 22 24l1 1q8 6 14 6t14 -6zM160 24q41 0 70.5 29.5t29.5 70.5q0 21 -8 40q-13 -49 -50 -84.5
t-86 -45.5q22 -10 44 -10z" />
    <glyph glyph-name="uniF25C" unicode="&#xf25c;" 
d="M224 352q124 0 214 -84l10 -10l-10 -9l-32 -32l-10 -10l-9 9q-69 64 -163 64t-163 -64l-9 -9l-10 10l-32 32l-10 9l10 10q90 84 214 84zM365 192l11 -10l-10 -10l-33 -32l-9 -9l-10 8q-40 35 -90 35t-90 -35l-10 -8l-9 9l-33 32l-10 10l11 10q57 51 132 54h9v0
q81 0 141 -54zM224 32l-10 10l-52 52l-11 10l12 10q31 20 61 20q35 0 62 -20l11 -10l-10 -10l-53 -52z" />
    <glyph glyph-name="uniF25D" unicode="&#xf25d;" horiz-adv-x="192" 
d="M30 299q3 11 14 22t28 12h48q16 -1 27 -11.5t15 -22.5l29 -104q3 -11 -2.5 -17.5t-13.5 -4.5t-11 12l-26 96h-9l46 -169h-43v-127q0 -11 -8 -15.5t-15.5 0t-7.5 15.5v127h-10v-127q0 -11 -8 -15.5t-16 0t-8 15.5v127h-42l45 169h-7l-27 -96q-3 -10 -11 -12t-13.5 4.5
t-2.5 17.5zM133 379q0 -16 -11 -26.5t-26 -10.5t-26 10.5t-11 26.5t11 26.5t26 10.5t26 -10.5t11 -26.5z" />
    <glyph glyph-name="uniF25E" unicode="&#xf25e;" horiz-adv-x="320" 
d="M178 238l64 64l-50 50h128v-128l-50 50l-64 -64zM178 146l28 28l64 -64l50 50v-128h-128l50 50zM142 146l-64 -64l50 -50h-128v128l50 -50l64 64zM142 238l-28 -28l-64 64l-50 -50v128h128l-50 -50z" />
    <glyph glyph-name="uniF25F" unicode="&#xf25f;" 
d="M0 64v160l61 -61l131 141l107 -112l149 128l-149 -203l-107 107l-94 -98l62 -62h-160z" />
    <glyph glyph-name="uniF260" unicode="&#xf260;" 
d="M288 64l62 62l-94 98l-107 -107l-149 203l149 -128l107 112l131 -141l61 61v-160h-160z" />
    <glyph glyph-name="uniF261" unicode="&#xf261;" 
d="M160 320l-62 -62l94 -98l107 107l149 -203l-149 128l-107 -112l-131 141l-61 -61v160h160z" />
    <glyph glyph-name="uniF262" unicode="&#xf262;" 
d="M288 320h160v-160l-61 61l-131 -141l-107 112l-149 -128l149 203l107 -107l94 98z" />
    <glyph glyph-name="uniF263" unicode="&#xf263;" 
d="M448 192l-96 -96v76h-109l1 -108h76l-96 -96l-96 96h76v108h-108v-76l-96 96l96 96v-76h108v108h-76l96 96l96 -96h-76v-108h108v76z" />
    <glyph glyph-name="uniF264" unicode="&#xf264;" horiz-adv-x="320" 
d="M192 352h128v-128l-50 50l-9 -9l-183 -183l50 -50h-128v128l50 -50l128 128l64 64z" />
    <glyph glyph-name="uniF265" unicode="&#xf265;" horiz-adv-x="384" 
d="M128 352v-64h248q8 0 8 -8v-240q0 -8 -8 -8h-304q-8 0 -8 8v48q0 8 8 8h248v128h-192v-64l-128 96z" />
    <glyph glyph-name="uniF266" unicode="&#xf266;" horiz-adv-x="384" 
d="M384 256l-128 -96v64h-192v-128h248q8 0 8 -8v-48q0 -8 -8 -8h-304q-8 0 -8 8v240q0 8 8 8h248v64z" />
    <glyph glyph-name="uniF267" unicode="&#xf267;" horiz-adv-x="384" 
d="M384 356l-82 -82l50 -50h-128v128l50 -50l82 82zM384 28l-28 -28l-82 82l-50 -50v128h128l-50 -50zM0 28l82 82l-50 50h128v-128l-50 50l-82 -82zM0 356l28 28l82 -82l50 50v-128h-128l50 50z" />
    <glyph glyph-name="uniF268" unicode="&#xf268;" horiz-adv-x="384" 
d="M0 120q0 8 8 8h248v64l128 -96l-128 -96v64h-248q-8 0 -8 8v48zM384 264q0 -8 -8 -8h-248v-64l-128 96l128 96v-64h248q8 0 8 -8v-48z" />
    <glyph glyph-name="uniF269" unicode="&#xf269;" horiz-adv-x="384" 
d="M80 256h240v-224q0 -16 -16 -16h-208q-16 0 -16 16v224zM296 104v48q0 8 -8 8t-8 -8v-48q0 -8 8 -8t8 8zM288 176q8 0 8 8t-8 8t-8 -8t8 -8zM381 416q3 0 3 -3q0 -1 -1 -2l-1.5 -1.5t-0.5 -1.5q-13 -26 -13 -40v-336q0 -26 -19 -45t-45 -19h-208q-26 0 -45 19t-19 45v307
q0 24 -4.5 29t-27.5 8q0 14 15 27t50 13h316zM336 368q0 16 1 16h-273q-3 0 -4 -1q4 -6 4 -44v-307q0 -14 9 -23t23 -9h210q13 0 21.5 9t8.5 23v336z" />
    <glyph glyph-name="uniF26A" unicode="&#xf26a;" 
d="M384 288q26 0 45 -19t19 -45v-96q0 -26 -19 -45t-45 -19h-32v-80q0 -16 -16 -16h-256q-16 0 -16 16v223q-20 0 -34 14.5t-14 33.5v54v1q-16 18 -16 42q0 26 19 45t45 19t46 -20q17 20 43 20q19 0 37 -14q19 14 42 14q27 0 46 -16q18 16 42 16q26 0 45 -19t19 -45
q0 -17 -10 -31t-22 -17v-16h32zM296 144q8 0 8 8v48q0 8 -8 8t-8 -8v-48q0 -5 4 -7q1 -1 4 -1zM303 220q1 2 1 6t-3 5q-2 1 -6 1q-3 0 -5 -4t-2 -6q0 -3 4 -5q2 -1 6 -1q3 0 5 4zM320 288v32h-20q-5 -14 -13 -23q-20 -25 -55 -25q-40 0 -61 33q-9 -3 -18 -3q-17 0 -32 10
q-1 0 -2.5 2t-2.5 2q0 -1 -1 -2.5t-2 -2.5q-5 -6 -17 -14v-32v-9h80q0 8 8 8t8 -8h128v32zM351 343q1 3 1 9q0 14 -9 23t-23 9q-13 0 -23 -10q-5 -5 -16 -6h-8q-11 2 -14 5q-11 11 -27 11q-12 0 -25 -9l-7 -7q0 -1 -1 -2q-5 -5 -11 -5q-5 0 -11 6q-1 1 -2 2.5t-1 2.5
q-1 2 -5 6q-6 6 -16 6q-9 0 -25 -16q-5 -6 -17 -6t-17 6q-14 16 -30 16q-14 0 -23 -9t-9 -23q0 -1 0.5 -3.5t0.5 -3.5q3 -15 15 -21v-34v-35q0 -16 16 -16v26v23v32q15 0 24 11q2 2 4 6q6 10 12 11q22 4 30 -5q7 -9 19 -9q3 0 7 2q8 2 9 4q6 4 10 4q11 0 14 -10q1 -1 1 -2
q2 -7 3 -8q12 -20 35 -20q21 0 32 16q8 11 8 24q0 4 2 6t4 2h3h7h48q12 0 15 -9zM416 128v96q0 14 -9 23t-23 9h-32v-160h32q14 0 23 9t9 23zM128 280q0 8 8 8t8 -8t-8 -8t-8 8zM288 280q0 8 8 8t8 -8t-8 -8t-8 8z" />
    <glyph glyph-name="uniF26B" unicode="&#xf26b;" horiz-adv-x="192" 
d="M184 384q8 0 8 -8v-56h-192v56q0 8 8 8h176zM0 0v304h192v-304l-96 96z" />
    <glyph glyph-name="uniF26C" unicode="&#xf26c;" 
d="M240 176v8h208v-176q0 -8 -8 -8h-432q-8 0 -8 8v176h208v-8h32zM440 304q8 0 8 -8v-96h-208v8h-32v-8h-208v96q0 8 8 8h120v31q1 21 15 35t36 14h90q22 0 36 -14t15 -35v-31h120zM288 332v1q0 7 -6 13t-13 6h-90q-7 0 -13 -6t-6 -13v-1v-1v-27h128v27v1z" />
    <glyph glyph-name="uniF26D" unicode="&#xf26d;" horiz-adv-x="320" 
d="M304 416q16 0 16 -16v-416q0 -16 -16 -16h-288q-16 0 -16 16v416q0 16 16 16h288zM48 240v-32h32v32h-32zM48 176v-32h32v32h-32zM48 112v-32h32v32h-32zM144 16v32h-96v-32h96zM144 80v32h-32v-32h32zM144 144v32h-32v-32h32zM144 208v32h-32v-32h32zM208 16v32h-32v-32
h32zM208 80v32h-32v-32h32zM208 144v32h-32v-32h32zM208 208v32h-32v-32h32zM272 16v96h-32v-96h32zM272 144v32h-32v-32h32zM272 208v32h-32v-32h32zM272 288v80h-224v-80h224z" />
    <glyph glyph-name="uniF26E" unicode="&#xf26e;" 
d="M224 416q93 0 158.5 -65.5t65.5 -158.5t-65.5 -158.5t-158.5 -65.5t-158.5 65.5t-65.5 158.5t65.5 158.5t158.5 65.5zM360 56q16 16 26 33l-27 16l8 14l27 -16q21 40 22 81h-32v16h32q-1 41 -22 81l-27 -16l-8 14l27 16q-10 17 -26 33t-33 26l-16 -27l-14 8l16 27
q-40 21 -81 22v-32h-16v32q-41 -1 -81 -22l16 -27l-14 -8l-16 27q-17 -10 -33 -26t-26 -33l27 -16l-8 -14l-27 16q-21 -40 -22 -81h32v-16h-32q1 -41 22 -81l27 16l8 -14l-27 -16q10 -17 26 -33t33 -26l16 27l14 -8l-16 -27q40 -21 81 -22v32h16v-32q41 1 81 22l-16 27l14 8
l16 -27q17 10 33 26zM368 207v-32h-117q-10 -15 -27 -15q-14 0 -23 9t-9 23q0 18 16 28v68h32v-68q7 -4 12 -13h116z" />
    <glyph glyph-name="uniF26F" unicode="&#xf26f;" 
d="M299 164l-63 -63l-1 -1l-2 -1l-1 -1l-2 -1h-1h-1l-2 -1h-2h-2l-2 1h-1h-1l-2 1l-1 1l-1 1q-2 0 -2 1l-63 63q-11 12 0 23q5 5 12 5t12 -5l35 -34v118q0 7 4.5 12t11.5 5t11.5 -5t4.5 -12v-118l35 34q5 5 12 5t12 -5q11 -11 0 -23zM136 56q-10 0 -17 7l-112 112
q-7 7 -7 17t7 17l112 112q7 7 17 7t17 -7t7 -17t-7 -17l-95 -95l95 -95q7 -7 7 -17t-7 -17t-17 -7zM312 56q-10 0 -17 7t-7 17t7 17l95 95l-95 95q-7 7 -7 17t7 17t17 7t17 -7l112 -112q7 -7 7 -17t-7 -17l-112 -112q-7 -7 -17 -7z" />
    <glyph glyph-name="uniF270" unicode="&#xf270;" 
d="M128 192q0 24 24 24t24 -24t-24 -24t-24 24zM200 192q0 24 24 24t24 -24t-24 -24t-24 24zM272 192q0 24 24 24t24 -24t-24 -24t-24 24zM136 56q-10 0 -17 7l-112 112q-7 7 -7 17t7 17l112 112q7 7 17 7t17 -7t7 -17t-7 -17l-95 -95l95 -95q7 -7 7 -17t-7 -17t-17 -7z
M312 56q-10 0 -17 7t-7 17t7 17l95 95l-95 95q-7 7 -7 17t7 17t17 7t17 -7l112 -112q7 -7 7 -17t-7 -17l-112 -112q-7 -7 -17 -7z" />
    <glyph glyph-name="uniF271" unicode="&#xf271;" 
d="M136 56q-10 0 -17 7l-112 112q-7 7 -7 17t7 17l112 112q7 7 17 7t17 -7t7 -17t-7 -17l-95 -95l95 -95q7 -7 7 -17t-7 -17t-17 -7zM312 56q-10 0 -17 7t-7 17t7 17l95 95l-95 95q-7 7 -7 17t7 17t17 7t17 -7l112 -112q7 -7 7 -17t-7 -17l-112 -112q-7 -7 -17 -7z" />
    <glyph glyph-name="uniF272" unicode="&#xf272;" horiz-adv-x="384" 
d="M319 191q28 -5 46.5 -27.5t18.5 -51.5q0 -30 -21 -54q-23 -26 -61 -26q-13 0 -25 3q-4 1 -15 5q-10 -13 -32 -33q-7 -7 -19 -7h-102q-12 0 -19 7q-41 36 -62 86q-28 67 -28 111q0 14 3 17t13 3h101q-2 6 -19.5 18.5t-17.5 27.5q0 12 8.5 22.5t19.5 14.5q-3 -12 -3 -21
t19.5 -25t19.5 -28q0 -6 -1 -9h56q2 10 2 14q0 15 -14 26t-28 24.5t-14 33.5q0 21 13.5 39t33.5 23q-9 -32 -9 -35q0 -15 28.5 -41.5t28.5 -46.5q0 -16 -12 -37h76q6 0 8 -0.5t4.5 -2t3 -5.5t0.5 -12t-1 -13zM302 64q23 0 36.5 14.5t13.5 33.5q0 17 -11 30.5t-28 16.5
q-7 -32 -21 -66q-4 -9 -12 -25q8 -4 22 -4z" />
    <glyph glyph-name="uniF273" unicode="&#xf273;" 
d="M224 416q93 0 158.5 -65.5t65.5 -158.5t-65.5 -158.5t-158.5 -65.5t-158.5 65.5t-65.5 158.5q0 57 27 108q-27 20 -27 52q0 26 19 45t45 19q32 0 52 -27q51 27 108 27zM32 352q0 -16 13 -26q19 26 45 45q-10 13 -26 13q-14 0 -23 -9t-9 -23zM360 56q56 56 56 136t-56 136
t-136 56t-136 -56t-56 -136t56 -136t136 -56t136 56zM320 320q-54 -130 -72 -152q-8 -10 -38 -36l-56 -47l-26 -21q54 132 72 152q8 9 38 35l56 47z" />
    <glyph glyph-name="uniF274" unicode="&#xf274;" horiz-adv-x="352" 
d="M0 32v64h64v-64h-64zM96 32v128h64v-128h-64zM192 32v224h64v-224h-64zM288 32v320h64v-320h-64z" />
    <glyph glyph-name="uniF275" unicode="&#xf275;" 
d="M224 416q93 0 158.5 -65.5t65.5 -158.5t-65.5 -158.5t-158.5 -65.5t-158.5 65.5t-65.5 158.5t65.5 158.5t158.5 65.5zM360 56q56 56 56 136t-56 136t-136 56v-384q80 0 136 56z" />
    <glyph glyph-name="uniF276" unicode="&#xf276;" 
d="M325 322q6 -13 3 -15q-2 -2 -6.5 -1t-6.5 6q-1 3 -1 6l-1 3h-3q-6 -2 -6 4q1 2 5 4q0 1 -1 2q-1 6 3 5q8 -2 14 -14zM344 277zM403 251zM224 416q93 0 158.5 -65.5t65.5 -158.5t-65.5 -158.5t-158.5 -65.5t-158.5 65.5t-65.5 158.5t65.5 158.5t158.5 65.5zM141 19l8 -4
q6 -2 10 -3q19 -7 43 -10q45 -5 83 8q27 9 43 20q3 2 6 12t4 12q3 6 3.5 22.5t8.5 24.5q5 6 6 11t-0.5 11.5t-1.5 11.5q0 3 3 13t1 16q0 2 -4 0.5t-5 0.5q-2 3 -7.5 3.5t-12 -0.5t-8.5 -1q-12 2 -33 23q-3 3 1 26q1 3 2 14t4.5 16.5t12.5 7.5q3 1 5.5 5.5t4.5 5.5q3 1 7.5 2
t7.5 2q5 1 13.5 -0.5t12.5 -1.5q7 0 22 -11q3 -3 6.5 -3.5t8 -0.5t7.5 -1q4 1 -2 8q-3 2 -8 2q-9 2 -20 14.5t-16 15.5q-7 4 -11 0l1 -12q0 -1 -13 -5q-9 -2 -17 10q-5 9 2 12h3q2 1 4 1.5t5 1.5t5 2t4 2.5t3 3.5t0 4t-1 7q-1 6 -4 7q-4 1 -7.5 4t-7.5 4q-5 1 -5 14q0 7 5 7
h4q-25 16 -57 24q-4 -12 -8 -12q-7 -2 -9 -3q-2 -2 -5 -6.5t-5 -6.5t-4.5 -3.5t-5 1t-5.5 8.5q-2 6 0.5 15t1.5 13h-6h-3q7 -14 -8 -19q-4 0 -8.5 2.5t-8.5 1.5q-2 0 -5.5 1.5t-5.5 0.5q-13 -6 -14 -12q-2 -9 3 -10.5t11 4.5q14 14 25 6q5 -4 5 -14q0 -4 -0.5 -7t-2.5 -6.5
t-6 -2.5q-1 0 -3.5 1.5t-3.5 2t-4 -0.5q-2 -2 -29 -9q-6 -1 -14.5 -4.5t-10.5 -4.5q-11 -4 -12 -12q0 -14 -3 -15q-2 -1 -4.5 4.5t-7 11t-10.5 4.5q-10 -1 -19 -9.5t-6 -18.5q1 -2 7.5 -3.5t8 -3t-5.5 -7.5q-1 -2 -0.5 -5t1.5 -8.5t1 -6.5q1 -7 8 -11t13 1q5 5 14 2
q39 -21 45 -27q2 -2 7.5 -14t9.5 -14q1 -1 11.5 -5t14.5 -9q4 -6 0.5 -12.5t-8.5 -10.5q-2 -1 -8 -14t-8 -15q-2 -3 -16 -7q-1 0 -3 -2.5t-3.5 -5t-2.5 -3.5q-2 -2 -7 -9t-10 -10q-23 -16 -18 -44q3 -12 11 -16zM100 46l2 -2q7 -6 23 -16q-25 25 -21 78l3 24q1 2 -1.5 5.5
t-2.5 5.5q0 7 -4 9l-4 4q-9 9 -12 17q-8 17 10 43q5 8 -2 19t-8 13q0 3 -3.5 6t-2.5 6q1 5 -4 6q-3 2 -5 3q-7 4 -6 13.5t-1 12.5q-32 -53 -27.5 -115t43.5 -109l1 -1v-1h1q6 -8 9 -11q2 -2 5.5 -5t4.5 -4z" />
    <glyph glyph-name="uniF277" unicode="&#xf277;" horiz-adv-x="320" 
d="M160 416q50 0 105 -83.5t55 -173.5q0 -91 -43.5 -141t-116.5 -50t-116.5 50t-43.5 141q0 90 55 173.5t105 83.5z" />
    <glyph glyph-name="uniF278" unicode="&#xf278;" horiz-adv-x="256" 
d="M160 164v-68h64v-64h-64v-64h-64v64h-64v64h64v68q-42 11 -69 45.5t-27 78.5q0 53 37.5 90.5t90.5 37.5t90.5 -37.5t37.5 -90.5q0 -44 -27 -78.5t-69 -45.5zM128 208q33 0 56.5 23.5t23.5 56.5t-23.5 56.5t-56.5 23.5t-56.5 -23.5t-23.5 -56.5t23.5 -56.5t56.5 -23.5z
" />
    <glyph glyph-name="uniF279" unicode="&#xf279;" horiz-adv-x="384" 
d="M362 266q12 2 22 6q0 -18 -9 -36q-27 -49 -76.5 -79.5t-104.5 -4.5q-73 35 -117 24h-1l-2 -1q-15 -5 -26 -1v197q0 12 9.5 22t23.5 13q99 18 148 -74q43 -81 133 -66zM24 416q8 0 8 -8v-432q0 -8 -8 -8h-16q-8 0 -8 8v432q0 8 8 8h16z" />
    <glyph glyph-name="uniF27A" unicode="&#xf27a;" horiz-adv-x="128" 
d="M78 299zM128 282q0 -41 -37 -58q-5 -3 -8 -5.5t-3 -4.5v-1q16 -200 16 -213q0 -15 -9 -24q-8 -8 -23 -8v0q-14 0 -22 8q-10 10 -10 24l16 213q0 6 -11 11q-37 17 -37 58q0 15 2.5 34t5.5 32.5t8.5 36t7.5 31.5h8v-117q0 -11 9 -11q8 0 10 10v1l9 117h8l10 -117v-1
q2 -10 9 -10q9 0 9 11v117h8q24 -107 24 -134z" />
    <glyph glyph-name="uniF27B" unicode="&#xf27b;" horiz-adv-x="320" 
d="M314 416q6 0 6 -6v-84q0 -6 -6 -6h-52q-6 0 -6 6v14q-12 10 -22 7q-18 -5 -30 -25q-6 -10 -6 -66l8 -2q7 -1 7 -9v-70q0 -42 2.5 -92.5t5.5 -79.5l3 -29q0 -6 -6 -6h-84q-6 0 -6 6q11 106 11 201v70q0 7 7 9l7 2q0 32 -4.5 47t-17.5 27q-23 21 -63 17q-14 -1 -31.5 -17
t-26.5 -28q-8 -6 -10 11q1 16 20 41.5t52 39.5q52 22 102 22q22 0 38 -3q5 -1 13 -9.5t13 -8.5q9 0 18 9v6q0 6 6 6h52z" />
    <glyph glyph-name="uniF27C" unicode="&#xf27c;" 
d="M224 416q93 0 158.5 -65.5t65.5 -158.5t-65.5 -158.5t-158.5 -65.5t-158.5 65.5t-65.5 158.5t65.5 158.5t158.5 65.5zM402 264q-16 38 -42 64t-65 42l-19 -61q21 -9 38 -26q19 -19 27 -38zM224 96q40 0 68 28t28 68t-28 68t-68 28t-68 -28t-28 -68t28 -68t68 -28zM88 328
q-26 -26 -42 -65l61 -19q9 21 26 38q19 19 38 27l-19 61q-38 -16 -64 -42zM46 120q16 -38 42 -64t65 -42l19 61q-21 9 -38 26q-19 19 -27 38zM360 56q26 26 42 65l-61 19q-9 -21 -26 -38q-19 -19 -38 -27l19 -61q38 16 64 42z" />
    <glyph glyph-name="uniF27D" unicode="&#xf27d;" horiz-adv-x="320" 
d="M32 192h256l-128 -224zM307 275q13 -8 13 -23q0 -12 -9 -20t-21 -8h-4h-252h-4q-12 0 -21 8.5t-9 19.5q0 14 14 23l1 1l1 1q7 5 8 12v1q-2 6 -2 18q0 32 22 54t54 22q9 0 23 -4l-4 -31q1 7 3.5 14t5.5 11l2 4q30 38 77 38q40 0 68 -28t28 -68q0 -15 -5 -30v-1q0 -6 8 -12
l1 -1q1 -1 2 -1z" />
    <glyph glyph-name="uniF295" unicode="&#xf295;" horiz-adv-x="326" 
d="M222 80l-2 -13l53 -58l-18 -27l-74 9l-18 -55l-19 55l-73 -9l-18 27l53 58l-2 13l-104 -35l3 53l114 103q26 173 28 192q2 18 6.5 31.5t8.5 18.5l3 5q13 -15 18 -55l28 -192l114 -103l3 -53z" />
    <glyph glyph-name="uniF296" unicode="&#xf296;" horiz-adv-x="192" 
d="M144 147q48 -29 48 -83q0 -40 -28 -68t-68 -28t-68 28t-28 68q0 56 48 84q7 16 12 41q0 2 5.5 5.5t5.5 6.5v20q0 3 -3.5 6.5t-3.5 4.5v8v8q0 4 1 6l1 1v1l2 1l4 4v1q3 3 3 6l1 4v5q0 4 -4 8l-1 1l-4 4l-1 1q-3 3 -3 8v7q0 5 4 9l5 5q4 4 4 6v24q0 4 -4 8v1l-4 4l-1 1
q-3 3 -3 8v18q0 19 9 23q9 3 23 3q16 0 23.5 -8t8.5 -28q7 -81 9 -143zM96 0q14 0 23 9t9 23t-9 23t-23 9t-23 -9t-9 -23t9 -23t23 -9z" />
    <glyph glyph-name="uniF297" unicode="&#xf297;" horiz-adv-x="64" 
d="M62 416q2 0 2 -6v-412q0 -12 -7 -21t-17 -9v0q-10 0 -17 9t-7 21q0 5 7.5 54t8.5 76q0 14 -16 32t-16 38q0 149 54 214q4 4 8 4z" />
    <glyph glyph-name="uniF298" unicode="&#xf298;" horiz-adv-x="350" 
d="M46 349q18 -8 18 -29t-18 -29v-275q0 -16 -16 -16t-16 16v278q-14 10 -14 26t14 26v22q0 16 16 16t16 -16v-19zM142 155q15 -10 15 -27t-15 -27v-85q0 -16 -16 -16t-16 16v84q-17 8 -17 28t17 28v212q0 16 16 16t16 -16v-213zM238 285q16 -10 16 -28t-16 -28v-213
q0 -16 -16 -16t-16 16v213q-16 10 -16 28t16 28v83q0 16 16 16t16 -16v-83zM350 65q0 -18 -16 -28v-21q0 -16 -16 -16t-16 16v21q-16 10 -16 28t16 28v275q0 16 16 16t16 -16v-275q16 -10 16 -28z" />
    <glyph glyph-name="uniF299" unicode="&#xf299;" horiz-adv-x="256" 
d="M128 416q53 0 90.5 -36.5t37.5 -87.5q0 -9 -1 -14q-1 -3 -2 -8t-1 -8v-2q-6 -21 -28.5 -66.5t-30.5 -100.5v-1q-3 -12 -20 -12h-90q-17 0 -20 12v1q-8 55 -30.5 100.5t-28.5 66.5v2q0 3 -1 8t-2 8q-1 5 -1 14q0 51 37.5 87.5t90.5 36.5zM190 52v-1q-3 -5 -3 -7q0 -4 3 -8
v-1q2 -4 2 -5q0 -2 -2 -6v-1q-3 -4 -3 -7q0 -4 3 -8v-1q2 -4 2 -6q0 -8 -10 -11h-1q-3 0 -9.5 -1t-9.5 -2h-2q-8 -1 -14 -9q-8 -10 -18 -10t-19 11q-5 7 -13 8h-2q-3 1 -9.5 2t-9.5 1h-1q-10 3 -10 11q0 2 2 6v1q3 3 3 7q0 3 -3 8v1q-2 4 -2 6q0 1 2 5v1q3 4 3 8q0 2 -3 7v1
q-2 4 -2 6v1v3t2 1.5t5 0.5h114q7 -2 7 -6q0 -2 -2 -6z" />
    <glyph glyph-name="uniF29A" unicode="&#xf29a;" horiz-adv-x="384" 
d="M144 352q0 64 64 64t64 -64t-64 -64t-64 64zM0 192q0 48 48 48t48 -48t-48 -48t-48 48zM312 304q0 8 8 8t8 -8t-8 -8t-8 8zM132 340q15 -15 15 -36t-15 -36t-36 -15t-36 15t-15 36t15 36t36 15t36 -15zM352 192q0 16 16 16t16 -16t-16 -16t-16 16zM297 79q0 24 24 24
t24 -24t-24 -24t-24 24zM176 32q0 32 32 32t32 -32t-32 -32t-32 32zM56 80q0 40 40 40t40 -40t-40 -40t-40 40z" />
    <glyph glyph-name="uniF29B" unicode="&#xf29b;" 
d="M256 288q0 -14 -9 -23t-23 -9t-23 9t-9 23v96q0 14 9 23t23 9t23 -9t9 -23v-96zM224 128q14 0 23 -9t9 -23v-96q0 -14 -9 -23t-23 -9t-23 9t-9 23v96q0 14 9 23t23 9zM416 224q14 0 23 -9t9 -23t-9 -23t-23 -9h-96q-14 0 -23 9t-9 23t9 23t23 9h96zM128 224q14 0 23 -9
t9 -23t-9 -23t-23 -9h-96q-14 0 -23 9t-9 23t9 23t23 9h96zM314 237q-9 -9 -22.5 -9t-22.5 9t-9 23t9 23l68 67q9 9 22.5 9t22.5 -9t9 -22.5t-9 -22.5zM179 147q9 -9 9 -22.5t-9 -23.5l-68 -67q-9 -9 -22.5 -9t-22.5 9t-9 22.5t9 22.5l67 68q9 9 23 9t23 -9zM382 79
q9 -9 9 -22.5t-9 -22.5t-22.5 -9t-22.5 9l-68 68q-9 9 -9 22.5t9 22.5t22.5 9t22.5 -9zM179 282q9 -9 9 -22.5t-9 -22.5t-23 -9t-23 9l-67 68q-9 9 -9 22.5t9 22.5t22.5 9t22.5 -9z" />
    <glyph glyph-name="uniF29C" unicode="&#xf29c;" 
d="M448 222q0 -6 -1 -9q-8 -16 -23 -7q-5 2 -7 11q-1 2 -1 6.5t-1 7.5q-6 29 -22 58q-20 34 -47 56q-26 21 -62 33q-32 9 -64 9h-4q-2 0 -5 -0.5t-4 -0.5q-8 0 -20 -2q-17 -3 -37 -11q-31 -12 -57 -35q-24 -21 -42 -52q-18 -33 -24 -70q-2 -11 -2 -34q0 -11 1 -16
q0 -3 1 -9.5t2 -9.5q8 -38 28 -67q21 -32 48 -52q30 -22 65 -33q36 -10 76 -7q37 3 73 20q14 6 32 19q15 11 27 24q4 4 12 14q4 5 10 15q12 20 17 31q8 16 11 25q2 3 4 13q0 2 1 5.5t1 5.5q2 -15 -1 -26q-2 -12 -4 -16q-1 -5 -5 -15q-7 -16 -13 -28q-11 -19 -20 -30
q-16 -18 -25 -26q-25 -21 -62 -36q-34 -13 -73 -15q-37 -2 -75 11q-32 10 -65 33q-29 21 -50 50q-11 16 -18 31q-7 17 -13 33q-8 25 -10 56q-1 28 5 58q7 34 28 68q16 26 42 50q23 22 55 36q38 18 74 21q10 1 29 1q14 0 38 -4q35 -7 68 -26q32 -18 57 -48q23 -28 36 -58
q4 -10 10 -32t6 -26z" />
    <glyph glyph-name="uniF29D" unicode="&#xf29d;" horiz-adv-x="384" 
d="M368 208q16 0 16 -16t-16 -16h-80q-16 0 -16 16t16 16h80zM112 192q0 -16 -16 -16h-80q-16 0 -16 16t16 16h80q16 0 16 -16zM192 112q16 0 16 -16v-80q0 -16 -16 -16t-16 16v80q0 16 16 16zM192 384q16 0 16 -16v-80q0 -16 -16 -16t-16 16v80q0 16 16 16zM261 232
q-8 15 6 22l69 40q15 8 22 -6q8 -15 -6 -22l-69 -40q-15 -8 -22 6zM123 152q8 -15 -6 -22l-69 -40q-15 -8 -22 6q-8 15 6 22l69 40q15 8 22 -6zM254 117l40 -69q8 -15 -6 -22q-15 -8 -22 6l-40 69q-8 15 6 22q15 8 22 -6zM118 352l40 -69q8 -15 -6 -22q-15 -8 -22 6l-40 69
q-8 15 6 22q15 8 22 -6zM232 261q-14 7 -6 22l40 69q7 14 22 6q14 -7 6 -22l-40 -69q-7 -14 -22 -6zM152 123q14 -7 6 -22l-40 -69q-7 -14 -22 -6q-14 7 -6 22l40 69q7 14 22 6zM352 118q14 -7 6 -22q-7 -14 -22 -6l-69 40q-14 7 -6 22q7 14 22 6zM32 266q-14 7 -6 22
q7 14 22 6l69 -40q14 -7 6 -22q-7 -14 -22 -6z" />
    <glyph glyph-name="uniF29E" unicode="&#xf29e;" 
d="M224 416q93 0 158.5 -65.5t65.5 -158.5t-65.5 -158.5t-158.5 -65.5q-71 0 -128 40t-81 104h34q14 -31 39 -56q56 -56 136 -56t136 56t56 136t-56 136t-136 56t-136 -56q-25 -25 -39 -56h-34q24 64 81 104t128 40zM175 124l52 52h-227v32h227l-52 52l22 23l91 -91l-91 -91
z" />
    <glyph glyph-name="uniF29F" unicode="&#xf29f;" 
d="M335 124l52 52h-227v32h227l-52 52l22 23l91 -91l-91 -91zM359 56l8 8h41q-31 -44 -79.5 -70t-104.5 -26q-93 0 -158.5 65.5t-65.5 158.5t65.5 158.5t158.5 65.5q56 0 104.5 -26t79.5 -70h-41l-8 8q-56 56 -135 56q-80 0 -136 -56t-56 -136t56 -136t136 -56q79 0 135 56z
" />
    <glyph glyph-name="uniF2A0" unicode="&#xf2a0;" horiz-adv-x="384" 
d="M192 416q87 0 139.5 -54.5t52.5 -145.5q0 -64 -15 -128q-7 -29 -17 -57.5t-16 -42.5l-6 -13v-1q-4 -6 -10 -6h-2l-2 1l-2 1l-50 20l-2 1q-5 3 -5 9q0 3 1 4v1q28 65 37 101q13 55 13 108t-33.5 87.5t-82.5 34.5t-82.5 -34.5t-33.5 -87.5t13 -108q9 -36 37 -101v-1
q1 -1 1 -4q0 -6 -5 -9l-2 -1l-50 -20l-2 -1l-2 -1h-2q-6 0 -10 6v1q-24 47 -40 113q-14 60 -14 128q0 91 52.5 145.5t139.5 54.5zM109 4q-26 55 -36 98l-42 -12q12 -49 35 -104l43 17v1zM317 -14q26 61 36 104l-43 12q-11 -47 -35 -98v-1z" />
    <glyph glyph-name="uniF2A1" unicode="&#xf2a1;" 
d="M448 256l-63 63l-69 -69q36 -49 36 -106q0 -73 -51.5 -124.5t-124.5 -51.5t-124.5 51.5t-51.5 124.5t51.5 124.5t124.5 51.5q57 0 106 -36l69 69l-63 63h160v-160zM266 54q38 38 38 90t-38 90t-90 38t-90 -38t-38 -90t38 -90t90 -38t90 38z" />
    <glyph glyph-name="uniF2A2" unicode="&#xf2a2;" 
d="M440 304q8 0 8 -8v-288q0 -8 -8 -8h-432q-8 0 -8 8v288q0 8 8 8h120v31q1 21 15 35t36 14h45h45q22 0 36 -14t15 -35v-31h120zM160 331v-27h128v27v1v1q0 7 -6 13t-13 6h-45h-45q-7 0 -13 -6t-6 -13v-1v-1zM320 128v64h-64v64h-64v-64h-64v-64h64v-64h64v64h64z" />
    <glyph glyph-name="uniF2A3" unicode="&#xf2a3;" 
d="M448 416l-192 -448v256h-256z" />
    <glyph glyph-name="uniF2A4" unicode="&#xf2a4;" 
d="M176 176q0 48 48 48t48 -48t-48 -48t-48 48zM176 176q0 48 48 48t48 -48t-48 -48t-48 48zM448 176q0 -40 -15 -78q-15 -39 -40 -66q-27 -30 -59 -48l-79 136q33 18 33 56h160zM224 240q-18 0 -33 -9l-80 138q54 31 113 31q60 0 113 -30l-81 -139q-15 9 -32 9zM160 176
q0 -38 33 -56l-79 -136q-52 30 -83 80t-31 112h160z" />
    <glyph glyph-name="uniF2A5" unicode="&#xf2a5;" 
d="M1 192q0 2 -0.5 8t-0.5 8q0 86 61 147t147 61q2 0 8 -0.5t8 -0.5v-32v-191h-191h-32zM78 46q-41 50 -45 114h223v223q64 -4 114 -45q78 -63 78 -162q0 -86 -61 -147t-147 -61q-99 0 -162 78z" />
    <glyph glyph-name="uniF2A6" unicode="&#xf2a6;" horiz-adv-x="224" 
d="M188 220q36 -18 36 -55q0 -13 -3 -17t-12 -4h-81l-12 -176h-8l-12 176h-81q-9 0 -12 4.5t-3 16.5q0 37 36 55q2 0 4 2q11 6 14 19l18 118v5q0 8 -10 13l-1 1h-1q-12 5 -12 17q0 14 4 17.5t14 3.5h92q10 0 14 -3.5t4 -17.5q0 -12 -12 -17h-1l-1 -1q-10 -5 -10 -13v-5
l18 -118q3 -13 14 -19q2 -2 4 -2z" />
    <glyph glyph-name="uniF2A7" unicode="&#xf2a7;" 
d="M224 416q93 0 158.5 -65.5t65.5 -158.5t-65.5 -158.5t-158.5 -65.5t-158.5 65.5t-65.5 158.5t65.5 158.5t158.5 65.5zM360 56q49 49 55 120l-63 8v16l63 8q-6 71 -55 120t-120 55l-8 -63h-16l-8 63q-71 -6 -120 -55t-55 -120l63 -8v-16l-63 -8q6 -71 55 -120t120 -55
l8 63h16l8 -63q71 6 120 55z" />
    <glyph glyph-name="uniF2A8" unicode="&#xf2a8;" horiz-adv-x="352" 
d="M315 318q15 -6 9 -20l-148 -330l-148 331q-6 13 9 19q61 28 139 28q76 0 139 -28zM112 256q14 0 23 9t9 23t-9 23t-23 9t-23 -9t-9 -23t9 -23t23 -9zM176 109q14 0 23 9.5t9 22.5t-9 22.5t-23 9.5t-23 -9.5t-9 -22.5t9 -22.5t23 -9.5zM240 224q14 0 23 9t9 23t-9 23
t-23 9t-23 -9t-9 -23t9 -23t23 -9zM342 382q10 -5 10 -13q0 -3 -1 -5l-8 -19q-5 -9 -14 -9l-6 2q-68 30 -147 30q-76 0 -147 -30l-6 -2q-9 0 -14 9l-8 19q-1 2 -1 5q0 9 10 14q77 33 166 33q88 0 166 -34z" />
    <glyph glyph-name="uniF2A9" unicode="&#xf2a9;" 
d="M224 192q-14 0 -23 9t-9 23v160q0 14 9 23t23 9t23 -9t9 -23v-160q0 -14 -9 -23t-23 -9zM347 379q47 -31 74 -80t27 -107q0 -93 -65.5 -158.5t-158.5 -65.5t-158.5 65.5t-65.5 158.5q0 58 27 107t74 80q8 5 17 5q14 0 23 -9t9 -23q0 -9 -5 -17q-4 -6 -7 -8q0 -1 -2 -2
l-2 -1q-16 -12 -23 -19q-47 -47 -47 -113t47 -113t113 -47t113 47t47 113t-47 113q-7 7 -23 19q-1 1 -4 3t-7 8q-5 8 -5 17q0 14 9 23t23 9q9 0 17 -5z" />
    <glyph glyph-name="uniF2AA" unicode="&#xf2aa;" 
d="M439 187q9 -9 9 -21.5t-9 -21.5l-165 -167q-8 -8 -20.5 -8.5t-21.5 7.5l-3 3l-206 209l-6 5q-8 10 -10 24v2l-7 98v4q0 20 13 33l49 49q12 13 31 13h4l100 -4q18 0 30 -12l2 -2l210 -211v0zM112 256q20 0 34 14t14 34t-14 34t-34 14t-34 -14t-14 -34t14 -34t34 -14z" />
    <glyph glyph-name="uniF2AB" unicode="&#xf2ab;" 
d="M440 209q8 -8 8 -19.5t-8 -19.5l-29 -29q8 8 8 19.5t-8 19.5v0l-190 191l-1 1h-1q-14 12 -27 12l-90 3h-4q-16 0 -26 -10l28 27q12 12 27 12h4l90 -4q14 0 27 -11h1l1 -1l190 -191v0zM396 166q8 -8 8 -20t-8 -20l-108 -109v1l-26 -27l-2 -2l-13 -13q-17 -17 -37 -1l-3 3
l-186 188l-5 5q-9 10 -10 22v2l-6 88v3v1q0 17 12 29l44 45l1 1l1 1q11 9 26 9h4l90 -3q14 0 27 -11l2 -1zM79 308q-21 -14 -21 -37q0 -18 12.5 -30.5t30.5 -12.5q23 0 37 21q7 12 7 22q0 18 -13 31t-31 13q-10 0 -22 -7z" />
    <glyph glyph-name="uniF2AC" unicode="&#xf2ac;" 
d="M160 192q0 64 64 64t64 -64t-64 -64t-64 64zM112 192q0 -26 13 -50t33 -37l-23 -25q-15 13 -18 16q-37 38 -37 96t37 96q3 3 18 16l23 -25q-20 -13 -33 -37t-13 -50zM336 192q0 26 -13 50t-33 37l23 25q15 -13 18 -16q37 -38 37 -96t-37 -96q-3 -3 -18 -16l-23 25
q20 13 33 37t13 50zM32 192q0 -40 17 -77q15 -34 47 -59l-23 -24q-12 10 -17 16q-25 26 -41 65q-15 37 -15 79t15 79q16 39 41 65q5 6 17 16l23 -24q-12 -10 -26 -27q-8 -10 -20 -32q-8 -14 -13 -37q-5 -22 -5 -40zM416 192q0 40 -17 77q-15 34 -47 59l23 24q12 -10 17 -16
q25 -26 41 -65q15 -38 15 -79q0 -42 -15 -79q-16 -39 -41 -65q-4 -5 -17 -16l-23 24q32 25 47 59q17 37 17 77z" />
    <glyph glyph-name="uniF2AD" unicode="&#xf2ad;" horiz-adv-x="416" 
d="M402 310q16 -10 14 -36q-2 -31 -25 -54q-1 0 -1 -1l-2 -1q-39 -37 -94 -20q-2 2 -4 2q-9 2 -13 -4l-36 -39l107 -96q4 -3 0 -7l-50 -51q-4 -3 -7 0q-44 55 -93 107l-92 -98q-11 -12 -27.5 -11.5t-27.5 11.5q-11 12 -11 29t12 27l97 93l-12 12q-5 5 -1 10l2 5
q-19 20 -30 26.5t-26 5.5q-27 -1 -48 -28q-16 -20 -8 -62q1 -6 -2 -6q-5 0 -10 6q-9 10 -12.5 34t6.5 59q18 45 48 75q12 12 24 21q4 3 14 2.5t13 2.5q5 5 5 16l-4 4q-4 4 0 7l31 31q3 4 7 0l50 -50q4 -4 0 -8l-31 -31q-3 -3 -7 0l-8 9q-13 0 -17 -10q-7 -15 -3 -33
q3 -10 36 -43l5 3q6 3 10 -1q1 -2 13 -14l38 37q5 4 4 13q0 4 -1 5q-17 57 19 96l2 2q24 24 53 26q8 1 20 -3.5t15 -11.5l-48 -48l-2 -3l-1 -1q-1 -1 -1 -4t1 -5l2 -2l2 -2l41 -42l3 -3l1 -1q1 -1 4 -1t4 1l2 1l2 3z" />
    <glyph glyph-name="uniF2AE" unicode="&#xf2ae;" horiz-adv-x="320" 
d="M184 400h-8v-48v-16h-16h-32h-16v16v48h-9v-48v-16h-16h-72v-16h13q19 0 25 -3q9 -4 13 -13q3 -6 3 -20v-178q0 -18 -3 -24v-1q-3 -10 -12 -14h-1q-5 -3 -17 -3h-13l-3 -16h67h16v-16v-48h9v48v16h16h32h16v-16v-48h8v49v16h15q31 1 55 10q23 9 37 26q11 15 13 42
q2 23 -4 36q-7 15 -21 23q-7 4 -21 8l-46 11l43 19q6 3 12 9q5 4 11 16q4 11 3 22q-2 26 -10 37q-11 14 -31 21q-16 7 -41 8l-15 1v15v47zM200 416v-63q25 -1 45 -9q25 -9 38 -27q11 -15 13 -45q2 -16 -3 -28q-5 -13 -16 -23q-8 -8 -16 -11q9 -2 25 -10q21 -11 29 -30
q7 -17 5 -44q-2 -31 -16 -51q-16 -20 -45 -31q-24 -10 -59 -11v-65h-40v64h-32v-64h-41v64h-87l8 48h28q5 0 11 2q3 1 5 6q1 3 1 18v178q0 10 -1 12q-2 3 -6 6q-3 2 -18 2h-28v48h87v64h41v-64h32v64h40zM160 298v-74h-32v74h32zM160 176v-90h-32v90h32zM200 294
q6 -2 14 -12q6 -9 6 -21q0 -13 -7 -21q-7 -9 -13 -12v66zM200 174q10 -2 12 -3q12 -4 19 -13q8 -10 8 -24q0 -17 -10 -26q-12 -11 -23 -15q-1 -1 -3 -1h-3v82z" />
    <glyph glyph-name="uniF2AF" unicode="&#xf2af;" horiz-adv-x="320" 
d="M314 169q8 -19 6 -44q-2 -33 -16 -51q-16 -20 -45 -31q-24 -10 -59 -11v-64h-40v64h-32v-64h-41v64h-87l9 48h26q9 0 12 1t5 7t2 17v173q0 14 -2 18q-2 3 -6 6q-3 2 -18 2h-28v48h87v64h41v-64h32v64h40v-64q26 -1 46 -9q23 -9 37 -27q11 -15 13 -45q2 -16 -3 -28
q-3 -12 -16 -23q-8 -8 -16 -11q9 -2 25 -10q20 -11 28 -30zM128 298v-74h32v74h-32zM128 86h32v90h-32v-90zM200 294v-66q6 3 13 12q7 8 7 20t-6 21q-9 11 -14 13zM229 107q10 9 10 26q0 15 -8 25q-7 8 -20 13q-3 1 -11 3v-82q3 0 7 2q13 5 22 13z" />
    <glyph glyph-name="uniF2B0" unicode="&#xf2b0;" 
d="M224 416q93 0 158.5 -65.5t65.5 -158.5t-65.5 -158.5t-158.5 -65.5t-158.5 65.5t-65.5 158.5t65.5 158.5t158.5 65.5zM360 56q56 56 56 136t-56 136t-136 56t-136 -56t-56 -136t56 -136q18 -18 48 -34q0 3 1 8t2 8l29 122q-8 15 -8 36q0 25 13 41.5t31 16.5q14 0 22 -10
t8 -24q0 -9 -3.5 -22t-9 -30t-7.5 -27q-4 -18 6.5 -30.5t28.5 -12.5q31 0 51 34.5t20 84.5q0 38 -24.5 61.5t-68.5 23.5q-49 0 -79.5 -31.5t-30.5 -75.5q0 -26 15 -44q5 -6 3 -12q-1 -2 -3 -9t-2 -9q-3 -9 -11 -6q-46 19 -46 86q0 53 43 96.5t117 43.5q62 0 102 -38.5
t40 -90.5q0 -67 -33.5 -110t-87.5 -43q-18 0 -33.5 8t-21.5 20q-12 -52 -15 -62q-5 -15 -7 -19q23 -6 47 -6q80 0 136 56z" />
    <glyph glyph-name="uniF2B1" unicode="&#xf2b1;" 
d="M224 416q93 0 158.5 -65.5t65.5 -158.5t-65.5 -158.5t-158.5 -65.5q-34 0 -64 9q18 32 23 48l16 62q15 -28 54 -28q54 0 87.5 43t33.5 110q0 52 -40 90.5t-102 38.5q-74 0 -117 -43.5t-43 -96.5q0 -67 46 -86q9 -4 12 6q0 2 1.5 9t2.5 9q2 6 -3 12q-15 18 -15 44
q0 44 30.5 75.5t79.5 31.5q44 0 69 -23.5t25 -61.5q0 -50 -20 -84.5t-51 -34.5q-18 0 -29 12.5t-7 30.5q2 10 7.5 27t9 30t3.5 22q0 14 -8 24t-22 10q-18 0 -30.5 -16.5t-12.5 -41.5q0 -9 2 -18t4 -14l1 -4q-25 -104 -29 -122q-6 -24 -4 -51q-60 27 -97 82t-37 123
q0 93 65.5 158.5t158.5 65.5z" />
    <glyph glyph-name="uniF2B2" unicode="&#xf2b2;" 
d="M39 266q0 -58 50 -86h-1l-2 1l-2 1h-3q-26 2 -45 21.5t-24 47.5q-12 0 -12 16q0 14 11 16q5 32 28 53.5t53 21.5h8q-27 -11 -44 -36.5t-17 -55.5zM433 357q15 -38 15 -88q0 -51 -15 -88l-3 -9q-9 -20 -24 -34q-19 -19 -34 -20h-3q-10 0 -22 5l-10 5q-19 8 -56 18t-59 11
q-10 -20 -12 -30q-6 -27 -7 -61q-1 -35 3 -82q0 -1 0.5 -3.5t0.5 -3.5q0 -9 -9 -9h-77q-9 0 -9 6v7q1 20 3.5 42t6 39t7 31t6.5 23l3 10q0 1 3 11.5t4 18.5q1 5 -6 8.5t-18 7.5t-16 8q-47 28 -47 86q0 30 16.5 55.5t42.5 36.5h42h19q86 4 163 50q1 0 2 1t2 1q12 6 24 6
q19 0 37 -16q16 -16 24 -35q0 -1 1 -4t2 -4zM410 180q15 37 15 89q0 51 -15 88q-13 29 -30 29q-16 0 -29 -29q-15 -37 -15 -88q0 -52 15 -89q14 -33 29 -33t30 33z" />
    <glyph glyph-name="uniF2B3" unicode="&#xf2b3;" 
d="M312 192l8 -8l-64 -84v-4q0 -14 -9 -23t-23 -9t-23 9t-9 23t9 23t23 9h4zM224 352q93 0 158.5 -65.5t65.5 -158.5q0 -50 -22 -96h-36q25 44 26 88h-32v16h32q-1 41 -22 81l-27 -15l-8 13l27 16q-14 21 -26 33t-33 26l-16 -27l-14 8l16 27q-40 21 -81 22v-32h-16v32
q-41 -1 -81 -22l16 -27l-14 -8l-16 27q-21 -14 -33 -26q-16 -16 -26 -33l28 -16l-8 -13l-28 15q-21 -40 -22 -81h32v-16h-32q1 -44 26 -88h-36q-22 46 -22 96q0 93 65.5 158.5t158.5 65.5z" />
    <glyph glyph-name="uniF2B4" unicode="&#xf2b4;" horiz-adv-x="128" 
d="M128 288q0 50 -18 89t-46 39q-27 0 -45.5 -39t-18.5 -89q1 -19 11.5 -38t25.5 -26l1 -1q10 -7 10 -10q-16 -199 -16 -210q0 -16 10 -26q9 -9 22 -9v0q13 0 22 9q10 10 10 26l-16 210q0 3 10 10l1 1q16 7 26.5 25.5t10.5 38.5v0z" />
    <glyph glyph-name="uniF2B5" unicode="&#xf2b5;" horiz-adv-x="352" 
d="M96 32v320h64v-320h-64zM0 32v96h64v-96h-64zM192 32v160h64v-160h-64zM288 32v224h64v-224h-64z" />
    <glyph glyph-name="uniF2B6" unicode="&#xf2b6;" horiz-adv-x="160" 
d="M127 112q33 -23 33 -64q0 -33 -23.5 -56.5t-56.5 -23.5t-56.5 23.5t-23.5 56.5q0 42 33 65v257q0 19 13.5 32.5t33.5 13.5t33.5 -13.5t13.5 -32.5v-258zM65 370v-50h30v50q0 14 -15 14t-15 -14zM96 160v16h-16v-16h16zM96 192v64h-16v-64h16z" />
    <glyph glyph-name="uniF2B7" unicode="&#xf2b7;" 
d="M344 160zM104 160zM240 399q87 -6 147.5 -72t60.5 -155v-12q-3 20 -18 36t-34 16q-22 0 -37 -15t-15 -37q0 22 -15 37t-37 15q-48 0 -52 -45v-135q0 -27 -18 -45q-19 -19 -46 -19q-26 0 -44.5 19t-18.5 45q0 16 16 16t16 -16q0 -13 9 -22.5t22 -9.5q14 0 23 9t9 23v134
q-1 18 -16.5 32t-35.5 14q-22 0 -37 -15t-15 -37q0 22 -15 37t-37 15q-20 0 -35 -16t-17 -36v18q0 88 60.5 151.5t147.5 69.5v1q0 16 16 16t16 -16v-1z" />
    <glyph glyph-name="uniF2B8" unicode="&#xf2b8;" horiz-adv-x="256" 
d="M16 228zM256 320q0 -16 -14 -27q-3 -1 -3 -7q-2 -33 -9 -50q-10 -26 -39 -46t-36 -34q-11 -19 -11 -53v-24q0 -12 10 -18q2 -1 10 -9q14 -16 14 -34q0 -21 -14.5 -35.5t-35.5 -14.5t-35.5 14.5t-14.5 35.5v1q0 27 24 42q9 7 9 18q0 13 -10 27q-7 10 -32 26q-31 21 -40 46
q-6 15 -9 39q-1 8 -4 11q-16 10 -16 28q0 14 9 23t23 9t23 -9t9 -23q0 -17 -12 -26q-4 -3 -4 -14v0q0 -10 7 -28q7 -14 26 -29t26 -15q8 0 8 12v196q0 1 -3 4h-1v1q-15 10 -15 27q0 14 9 23t23 9t23 -9t9 -23q0 -18 -14 -27q-2 -2 -2 -5v-140q0 -7 1.5 -9.5t6.5 -1.5
q10 2 29.5 18t22.5 25q6 19 7 41v1l-3 6q-16 10 -16 28q0 14 9 23t23 9t23 -9t9 -23zM32 240q16 0 16 16t-16 16t-16 -16t16 -16zM128 368q16 0 16 16t-16 16t-16 -16t16 -16zM224 304q16 0 16 16t-16 16t-16 -16t16 -16z" />
    <glyph glyph-name="uniF2B9" unicode="&#xf2b9;" horiz-adv-x="256" 
d="M167 153q-8 -3 -11.5 -5t-8 -9t-4.5 -18v-94q0 -16 12 -25q5 -4 15 -6q45 -13 50 -18q4 -2 4 -7q-14 -3 -96 -3l-96 3q0 5 4 7q5 5 50 18q8 2 14 6q11 8 11 25v94q0 11 -3.5 18t-7.5 9t-11 5q-20 7 -26 11q-18 11 -32 26q-31 36 -31 87q0 86 8 114q7 25 31 25h178
q24 0 31 -25q8 -28 8 -115q0 -50 -31 -86q-14 -15 -32 -26q-6 -4 -26 -11zM128 178q39 0 67 28l6 6q22 24 23 65q2 66 -8 107h-177q-9 -46 -7 -108q1 -40 23 -64q4 -6 7 -8q28 -26 66 -26zM208 277q0 -17 -4 -29q-5 -15 -15 -25l-5 -5q-23 -23 -56 -23t-55 22l-6 6
q-10 10 -15 25q-2 7 -4 29q-1 11 1 53q2 19 3 22h153q2 -12 2 -22q1 -21 1 -53zM192 269v26q0 8 -8 8t-8 -8v-26q0 -5 3 -7q1 -1 5 -1q8 0 8 8zM191 316q1 2 1 6q0 3 -4 5q-2 1 -6 1t-5 -3q-1 -2 -1 -6q0 -3 4 -5q2 -1 6 -1t5 3z" />
    <glyph glyph-name="uniF2BA" unicode="&#xf2ba;" 
d="M430 333q20 -20 18 -44q-3 -36 -32 -65q-21 -21 -53 -28.5t-60 4.5q-11 7 -21 -3l-202 -215q-13 -14 -32.5 -14t-33.5 14t-14 33.5t14 32.5q207 194 215 202t3 22q-26 60 24 112q27 29 65 32q24 2 44 -18l-57 -56l10 -56l55 -10zM59 5q11 11 0 23q-11 11 -22 0
q-11 -12 0 -23t22 0z" />
    <glyph glyph-name="uniF2BE" unicode="&#xf2be;" 
d="M343 321q-9 -24 -28 -43q-37 -37 -91 -37t-91 37q-19 19 -28 43q47 63 119 63t119 -63zM95 305q17 -34 49.5 -56t71.5 -24v-225q-61 3 -104 54q-10 -8 -13 -15q13 -15 -1 -31q-16 -18 -34 -2t-2 34l3 3l2 1q6 20 27 36q-25 43 -29 90q-2 0 -17 -3q-2 -23 -24 -23
q-10 0 -17 7t-7 17t7 17t17 7h3l12 6q14 4 25 4q1 32 13 65q-12 8 -15 11q-8 6 -14 19q-2 0 -4 2q-20 10 -9 33q10 20 33 9q19 -11 10 -31q1 -2 2 -5l2 -3q1 -1 4 -2.5t4 -2.5q1 2 2.5 4t2.5 4zM424 192q10 0 17 -7t7 -17t-7 -17t-17 -7q-22 0 -24 23q-15 3 -17 3
q-4 -47 -29 -90q21 -16 27 -36q1 0 2 -1l3 -3q16 -18 -2 -34t-34 2q-14 16 -1 31q-3 7 -13 15q-43 -51 -104 -54v225q39 2 71.5 24t49.5 56q1 -2 2.5 -4t2.5 -4q1 1 4 2.5t4 2.5l2 3q1 3 2 5q-9 20 10 31q23 11 33 -9q11 -23 -9 -33q-2 -2 -4 -2q-6 -13 -14 -19
q-3 -3 -15 -11q12 -33 13 -65q11 0 25 -4l12 -6h3z" />
    <glyph glyph-name="uniF2BF" unicode="&#xf2bf;" 
d="M381 259l-250 -251l-91 91l251 250zM440 360q9 -9 8.5 -22t-10.5 -23l-45 -45l-91 91l45 45q10 10 23 10.5t22 -8.5zM32 85l85 -85l-117 -32z" />
    <glyph glyph-name="uniF2C0" unicode="&#xf2c0;" horiz-adv-x="320" 
d="M320 368v-64h-48v-48h-64v48h-48v64h48v48h64v-48h48zM208 208h64v-5q0 -34 -8 -55.5t-30 -39.5q-21 -18 -75 -22q-18 -2 -26 -3t-20 -10q15 -18 15 -41q0 -26 -19 -45t-45 -19t-45 19t-19 45q0 36 32 55v210q-32 19 -32 55q0 26 19 45t45 19t45 -19t19 -45
q0 -36 -32 -55v-160q11 5 27 9q5 1 10 1.5t11.5 1t9.5 0.5q32 2 40 9q6 5 8.5 8t4 13t1.5 29zM64 384q-14 0 -23 -9t-9 -23t9 -23t23 -9t23 9t9 23t-9 23t-23 9zM64 0q14 0 23 9t9 23t-9 23t-23 9t-23 -9t-9 -23t9 -23t23 -9z" />
    <glyph glyph-name="uniF2C1" unicode="&#xf2c1;" horiz-adv-x="512" 
d="M509 57v-8v-1v-3q0 -2 -0.5 -4t-0.5 -3q-1 -18 -6 -20q-3 -2 -10 -2h-43q-10 0 -11 16v8q32 2 52 0q13 0 16 6q0 1 3 11zM3 57q3 -10 3 -11q3 -6 16 -6q20 2 52 0v-8q-1 -16 -11 -16h-43q-7 0 -10 2q-6 3 -7 20v7v3v1v8zM512 151q0 -18 -1 -42t-1 -26q0 -11 -1 -18
q-3 -10 -3 -11q-3 -6 -16 -6q-20 2 -52 0q-7 0 -20 -1t-19 -1q-17 -1 -23.5 1.5t-10.5 2.5q-2 0 -42 -1t-67 -1t-67.5 1t-42.5 1q-4 0 -10.5 -2.5t-23.5 -1.5q-6 0 -18.5 1t-19.5 1q-32 2 -52 0q-13 0 -16 6q0 1 -3 11q-1 7 -1 18q0 2 -1 26t-1 42q0 55 6 64q3 5 26 21
q3 2 8 5q10 6 12 13q-1 0 -3.5 1.5t-3.5 1.5t-4 -1.5t-8 -1.5q-23 0 -28 5q-5 4 -5 8q0 6 5 13q3 4 27 7q8 1 12 -1q1 -1 2 -3.5t1 -5.5v-6v-5v-2l9 -1q1 3 5 16t9 25t10 21q15 26 32 32q4 1 48 6q48 5 96 5q49 0 96 -5q44 -5 48 -6q17 -6 32 -32q5 -9 10 -21t9 -25t5 -16
l9 1q-1 20 3 22t12 1q24 -3 27 -7q5 -7 5 -13q0 -3 -5 -8t-28 -5q-5 0 -8 1.5t-4 1.5t-3.5 -1.5t-3.5 -1.5q2 -6 3.5 -7l16.5 -11q23 -16 26 -21q6 -9 6 -64zM86 303q-13 -28 -10 -36q2 -5 15 -4q48 3 165 3t165 -3q13 -1 15 4q3 8 -10 36t-26 37q-14 7 -54 9q-51 3 -90 3
t-90 -3q-40 -2 -54 -9q-12 -7 -26 -37zM123 178l11 2q-17 16 -48 25q-40 12 -66 10q-3 -16 0 -27q2 -9 16 -12q2 -1 5 -2l4.5 -1.5t3.5 -0.5h3t3 1.5t4.5 2t4.5 0.5t17.5 -2t20.5 -2q4 0 7.5 1t7.5 2.5t6 2.5zM358 99q13 2 21.5 12.5t-0.5 20.5q-14 15 -20 17.5t-35 6.5
q-35 4 -68 4t-68 -4q-29 -4 -35 -6.5t-20 -17.5q-9 -10 -0.5 -20.5t21.5 -12.5q21 -3 102 -3t102 3zM492 188v27q-26 2 -66 -10q-14 -4 -26 -10.5t-17 -10.5l-5 -5q4 1 11 -1l21 -6q5 0 20.5 2t17.5 2t4.5 -0.5t4.5 -2t3 -1.5l16 4q14 3 16 12z" />
    <glyph glyph-name="uniF2C2" unicode="&#xf2c2;" 
d="M328 144v48h16v-48h-16zM80 144v48h90l48 -48h-138zM332 388q53 -29 84.5 -81.5t31.5 -114.5q0 -93 -65.5 -158.5t-158.5 -65.5q-35 0 -68 11q-1 1 -2.5 1t-2.5 1q-19 6 -35 15h-1q-52 29 -83.5 81.5t-31.5 114.5q0 93 65.5 158.5t158.5 65.5q35 0 68 -11q1 -1 2.5 -1
t2.5 -1q19 -6 35 -15zM224 22q55 0 100 32l-238 238q-32 -45 -32 -100q0 -48 24.5 -88t65.5 -62q16 -8 19 -9q1 -1 2.5 -1t2.5 -1q9 -3 29 -7q9 -2 27 -2zM362 93q32 45 32 99q0 49 -25 89.5t-66 61.5q-12 6 -18 8q-1 1 -2.5 1t-2.5 1q-9 3 -29 7q-9 2 -27 2q-54 0 -99 -32z
M320 150l-42 42h42v-42zM352 144v48h16v-48h-16zM328 235q16 -7 16 -34v-1h-16v1q0 17 -7 20q-8 4 -39 4h-3q-24 0 -33 13q-7 12 -2 29l-5 1q-5 1 -7 2q-26 11 -26 38q0 22 13.5 33t25.5 11v-16q-2 0 -6.5 -1t-10.5 -8t-6 -19q0 -17 16 -23l18 -3q5 0 7 -5q2 -6 0 -8
q-10 -14 -4 -22q4 -6 20 -6h3q32 0 46 -6zM368 200h-16q0 34 -7 46q-8 14 -25 14h-30q-4 0 -6 4t0 8q1 2 2 5.5t3 12t1 14.5q-2 17 -27 17v16q38 0 43 -30q3 -15 -3 -31h17q25 0 39 -22q9 -15 9 -54z" />
    </font>
</defs>
</svg>
